<svg version="1.1" id="Layer_1" xmlns="http://www.w3.org/2000/svg" xmlns:xlink="http://www.w3.org/1999/xlink" x="0px" y="0px"
	 width="100%" viewBox="0 0 537 417" enable-background="new 0 0 537 417" xml:space="preserve">
<path fill="#000100" opacity="1.000000" stroke="none" 
	d="
M329.000000,418.000000 
	C219.333328,418.000000 110.166664,418.000000 1.000000,418.000000 
	C1.000000,279.000000 1.000000,140.000000 1.000000,1.000000 
	C180.000000,1.000000 359.000000,1.000000 538.000000,1.000000 
	C538.000000,140.000000 538.000000,279.000000 538.000000,418.000000 
	C468.500000,418.000000 399.000000,418.000000 329.000000,418.000000 
M431.251740,104.691895 
	C430.816833,104.049881 430.381958,103.407867 429.691345,102.257538 
	C429.545715,102.136063 429.400055,102.014580 429.098297,101.349495 
	C428.719482,100.939278 428.340668,100.529068 427.703491,99.472839 
	C413.330811,79.269531 395.325409,62.937069 374.293640,49.965206 
	C359.231476,40.675232 343.276642,33.273838 325.617920,28.716969 
	C325.161865,28.666475 324.705780,28.615980 323.559814,28.203651 
	C323.044037,28.178629 322.528229,28.153606 321.351227,27.864552 
	C309.631500,25.852448 297.977264,23.039276 286.171967,22.074404 
	C276.211670,21.260328 266.076050,22.591322 255.122299,22.962172 
	C252.326431,23.287840 249.523102,23.559908 246.735794,23.947186 
	C202.476639,30.096687 165.462280,50.225323 135.104782,82.634483 
	C114.532593,104.597008 100.031960,130.172531 91.722862,159.920761 
	C91.139526,161.228714 90.340408,162.484650 90.010498,163.853683 
	C88.642548,169.530151 87.156631,175.199844 86.249290,180.956390 
	C85.805328,183.773056 86.459396,186.782242 86.758644,189.689667 
	C86.955750,191.604736 87.406349,193.493698 86.909233,195.716888 
	C83.479012,197.093216 84.074471,199.913818 84.692413,203.449066 
	C84.882088,210.577438 85.071770,217.705811 85.086136,225.348618 
	C88.412010,268.104156 104.434471,305.474518 132.651184,337.702576 
	C146.800507,353.863342 163.587891,366.730194 182.695938,377.839813 
	C188.393417,380.571075 193.999039,383.517761 199.805206,385.994232 
	C219.079422,394.215088 239.097778,399.481262 260.926697,400.812500 
	C262.625397,400.864136 264.324066,400.915741 266.493317,401.079742 
	C266.493317,401.079742 266.969116,400.992279 267.508148,401.152893 
	C267.693268,401.123138 267.878387,401.093414 268.780762,401.250061 
	C271.259613,401.213043 273.738464,401.176056 276.749695,401.283630 
	C277.104919,401.216125 277.460114,401.148651 278.337433,401.229309 
	C279.218506,401.165771 280.099548,401.102203 281.886017,401.200500 
	C283.411591,401.101990 284.937195,401.003479 286.381348,400.954498 
	C286.381348,400.954498 286.342957,400.911224 287.241150,400.905396 
	C288.126801,400.777313 289.012451,400.649200 290.769989,400.602631 
	C297.182770,399.648743 303.595520,398.694824 310.636627,397.776428 
	C311.439850,397.553558 312.243073,397.330688 313.518402,397.161407 
	C313.518402,397.161407 313.971008,397.016876 314.656586,397.072571 
	C315.930878,396.683533 317.205200,396.294525 319.172974,395.898804 
	C319.830383,395.700317 320.487823,395.501862 321.968079,395.278656 
	C325.015381,394.467590 328.108612,393.797729 331.103119,392.824280 
	C374.720795,378.644989 409.536591,352.633423 434.141235,313.934967 
	C441.889313,301.748749 446.875763,287.806671 453.689270,274.159271 
	C454.822144,270.426758 455.954987,266.694275 457.207214,262.744019 
	C457.207214,262.744019 457.076508,262.532867 457.388184,262.115356 
	C457.437500,261.777039 457.486816,261.438690 457.831268,260.498688 
	C457.867462,260.278259 457.903687,260.057800 458.319580,259.237457 
	C459.757843,251.491043 461.196136,243.744614 462.882263,235.193527 
	C462.966705,233.804489 463.051117,232.415451 463.350677,230.510925 
	C463.417572,229.014160 463.484467,227.517410 463.836060,225.230698 
	C463.649628,213.623016 464.311462,201.926941 463.112885,190.424728 
	C459.908997,159.679245 449.586029,131.350586 431.954254,105.426331 
	C431.809326,105.211739 431.607574,105.097786 431.251740,104.691895 
z"/>
<path fill="#000101" opacity="1.000000" stroke="none" 
	d="
M84.423294,202.645935 
	C84.074471,199.913818 83.479012,197.093216 87.314613,195.273193 
	C89.621796,184.249603 91.523590,173.669739 93.613281,162.789062 
	C93.845688,162.256088 93.890213,162.023880 94.106003,161.506073 
	C94.520836,160.150330 94.764404,159.080185 95.140320,157.686646 
	C95.806740,155.967239 96.379799,154.584717 96.869232,153.173218 
	C117.980759,92.287987 159.371002,51.930122 220.666229,32.607555 
	C234.781158,28.157995 249.945435,27.037138 265.123169,24.443516 
	C284.452271,23.766113 302.997864,25.864044 321.677032,30.298521 
	C343.884918,36.410480 364.157562,45.705307 382.686188,58.817402 
	C398.973328,70.343292 412.725067,84.425644 425.108704,100.202347 
	C425.444489,100.710991 425.726288,101.013947 426.109497,101.562950 
	C426.344574,101.925720 426.478180,102.042442 426.722687,102.446243 
	C427.230377,103.202103 427.627228,103.670906 428.047516,104.328239 
	C428.182190,104.763260 428.366486,104.927971 428.752319,105.344772 
	C430.549011,108.160851 432.217255,110.643059 433.933807,113.066833 
	C433.982086,113.008408 433.894348,113.137505 434.018250,113.468155 
	C438.628998,122.691788 443.542786,131.398880 447.512695,140.516922 
	C455.479187,158.814255 459.316650,178.195465 461.195312,198.326050 
	C461.202637,207.094269 461.293884,215.516998 461.247711,224.366211 
	C461.102692,225.687317 461.095123,226.581940 461.014771,227.458008 
	C460.941986,227.439453 461.069885,227.717255 460.965576,228.097534 
	C460.828461,229.518127 460.795624,230.558456 460.650665,231.957489 
	C460.052277,235.884796 459.566040,239.453400 458.958740,243.401398 
	C458.717712,244.837296 458.597717,245.893799 458.271729,247.224457 
	C457.091217,251.988098 456.116669,256.477570 454.976135,261.289368 
	C454.653229,262.085480 454.485321,262.555908 454.340942,263.033478 
	C438.462402,315.557159 406.298553,354.653046 357.141052,379.088745 
	C344.588837,385.328369 330.777283,389.034485 317.246826,393.866150 
	C316.232239,394.094818 315.515137,394.361908 314.492126,394.579773 
	C313.179260,394.727570 312.172272,394.924530 310.872375,395.065552 
	C309.829956,395.262329 309.080383,395.515015 307.918671,395.765686 
	C300.739990,396.658783 293.973511,397.553894 286.792847,398.390869 
	C284.230347,398.497925 282.081970,398.663147 279.697205,398.779480 
	C279.460815,398.730591 278.994202,398.854706 278.742340,398.800537 
	C278.322327,398.781372 278.154175,398.816345 277.846130,398.804504 
	C277.706238,398.757721 277.475586,398.941650 277.131042,398.852356 
	C275.435547,398.810516 274.084595,398.858002 272.548889,398.841064 
	C272.364075,398.776611 271.982483,398.863831 271.735992,398.798218 
	C271.322784,398.766022 271.156036,398.799500 270.754639,398.770721 
	C270.519989,398.708435 270.049316,398.827820 269.660034,398.737732 
	C257.599152,397.173981 245.814148,396.294006 234.281815,394.091187 
	C215.753479,390.551971 198.476410,383.281586 181.802933,374.209717 
	C181.707993,374.065094 181.379013,373.957886 181.401642,373.977417 
	C181.424255,373.996979 181.531708,373.974426 181.211395,373.734253 
	C143.723709,351.638611 117.002243,320.727844 100.720856,280.822388 
	C92.458061,260.570404 88.618484,239.344757 87.288712,217.424759 
	C87.403633,216.937988 87.296211,216.711899 87.162216,216.170639 
	C87.204460,213.334793 87.118256,210.887817 87.169342,208.233093 
	C87.425133,207.686035 87.386002,207.366028 87.251633,206.930634 
	C87.359352,206.489761 87.315178,206.203018 87.280052,205.623535 
	C87.328102,204.881668 87.277626,204.451996 87.282021,203.784485 
	C87.336884,203.546616 87.209183,203.075409 87.173935,203.081589 
	C87.138680,203.087769 87.152069,203.158081 87.252274,203.021454 
	C87.236176,202.588989 87.119865,202.293137 86.922287,201.710068 
	C86.035110,201.830536 85.229202,202.238235 84.423294,202.645935 
M142.128876,233.901917 
	C142.375351,235.123093 142.621841,236.344269 142.740540,238.258087 
	C146.630630,258.511261 155.178848,276.689850 167.829117,292.851746 
	C179.604950,307.896393 193.765045,320.306793 210.831192,329.156860 
	C231.961273,340.114349 254.399460,346.171509 278.241821,344.935638 
	C288.872620,344.384552 299.389496,341.635956 310.738312,339.820160 
	C311.498383,339.640564 312.258423,339.460968 313.579926,339.294403 
	C314.398254,338.867401 315.216583,338.440369 316.806641,337.905426 
	C338.351746,331.110138 356.712585,319.245880 371.796417,302.527191 
	C405.323090,265.366791 415.942505,222.324219 402.951752,174.037811 
	C394.573151,142.894577 376.231567,118.413971 349.623901,100.104225 
	C334.191589,89.484650 317.168976,82.878937 298.399872,78.897743 
	C297.213379,78.824257 296.026855,78.750771 294.266846,78.483696 
	C293.674683,78.358871 293.082520,78.234055 292.480743,78.007889 
	C292.480743,78.007889 292.579590,78.126259 291.713104,78.110268 
	C291.135620,78.093163 290.558105,78.076065 289.327576,77.617088 
	C281.741699,77.333817 274.137329,76.577560 266.574097,76.873116 
	C253.785339,77.372894 241.211517,79.418053 228.647064,84.799187 
	C220.397354,88.637161 211.636490,91.660408 203.989075,96.458351 
	C175.420013,114.382408 155.645218,139.426178 145.726990,171.852631 
	C140.122757,190.174973 138.094345,208.873520 141.004822,228.702591 
	C141.359985,230.125259 141.715134,231.547943 142.128876,233.901917 
z"/>
<path fill="#26AE72" opacity="1.000000" stroke="none" 
	d="
M264.626801,24.384443 
	C249.945435,27.037138 234.781158,28.157995 220.666229,32.607555 
	C159.371002,51.930122 117.980759,92.287987 96.869232,153.173218 
	C96.379799,154.584717 95.806740,155.967239 94.950027,157.960327 
	C94.396492,159.635483 94.165611,160.713577 93.934731,161.791687 
	C93.890213,162.023880 93.845688,162.256088 93.387199,162.783142 
	C92.687340,161.829803 92.401443,160.581573 92.115555,159.333359 
	C100.031960,130.172531 114.532593,104.597008 135.104782,82.634483 
	C165.462280,50.225323 202.476639,30.096687 246.735794,23.947186 
	C249.523102,23.559908 252.326431,23.287840 255.916992,23.121164 
	C259.350037,23.648252 261.988434,24.016348 264.626801,24.384443 
z"/>
<path fill="#25AE71" opacity="1.000000" stroke="none" 
	d="
M87.221390,217.611740 
	C88.618484,239.344757 92.458061,260.570404 100.720856,280.822388 
	C117.002243,320.727844 143.723709,351.638611 181.187820,373.721375 
	C181.484543,373.948669 181.379013,373.957886 181.379013,373.957886 
	C181.379013,373.957886 181.707993,374.065094 181.821625,374.533264 
	C181.959000,375.865509 181.982727,376.729584 182.006439,377.593628 
	C163.587891,366.730194 146.800507,353.863342 132.651184,337.702576 
	C104.434471,305.474518 88.412010,268.104156 85.433769,224.850342 
	C86.261398,222.105286 86.741394,219.858521 87.221390,217.611740 
z"/>
<path fill="#25AE71" opacity="1.000000" stroke="none" 
	d="
M317.544312,393.904602 
	C330.777283,389.034485 344.588837,385.328369 357.141052,379.088745 
	C406.298553,354.653046 438.462402,315.557159 454.340942,263.033478 
	C454.485321,262.555908 454.653229,262.085480 455.171143,261.053284 
	C456.157349,259.264221 456.782562,258.033630 457.939941,255.755630 
	C457.939941,257.892151 457.939941,258.864746 457.939941,259.837341 
	C457.903687,260.057800 457.867462,260.278259 457.574463,261.025116 
	C457.237305,261.878662 457.156891,262.205750 457.076508,262.532867 
	C457.076508,262.532867 457.207214,262.744019 456.927185,263.146576 
	C455.473511,267.255493 454.299805,270.961853 453.126160,274.668243 
	C446.875763,287.806671 441.889313,301.748749 434.141235,313.934967 
	C409.536591,352.633423 374.720795,378.644989 331.103119,392.824280 
	C328.108612,393.797729 325.015381,394.467590 321.345062,395.098145 
	C319.662811,394.579987 318.603546,394.242279 317.544312,393.904602 
z"/>
<path fill="#26AE72" opacity="1.000000" stroke="none" 
	d="
M425.054779,99.996643 
	C412.725067,84.425644 398.973328,70.343292 382.686188,58.817402 
	C364.157562,45.705307 343.884918,36.410480 321.779724,30.110254 
	C321.689209,29.222418 321.850830,28.675501 322.012451,28.128586 
	C322.528229,28.153606 323.044037,28.178629 324.114380,28.467289 
	C325.117523,28.807165 325.566132,28.883406 326.014709,28.959644 
	C343.276642,33.273838 359.231476,40.675232 374.293640,49.965206 
	C395.325409,62.937069 413.330811,79.269531 427.846741,100.094635 
	C428.022980,101.112579 428.056000,101.508720 428.035095,101.963394 
	C427.981201,102.021927 427.873535,102.139076 427.558044,102.139282 
	C427.032257,102.146057 426.822021,102.152618 426.611816,102.159172 
	C426.478180,102.042442 426.344574,101.925720 426.022278,101.377869 
	C425.574005,100.630035 425.314392,100.313332 425.054779,99.996643 
z"/>
<path fill="#23AB6F" opacity="1.000000" stroke="none" 
	d="
M461.279205,197.980576 
	C459.316650,178.195465 455.479187,158.814255 447.512695,140.516922 
	C443.542786,131.398880 438.628998,122.691788 434.105438,113.374207 
	C434.007660,113.008163 433.946594,113.066711 433.885529,113.125259 
	C432.217255,110.643059 430.549011,108.160851 429.079041,105.360977 
	C429.495026,105.055771 429.712677,105.068222 430.006958,105.312469 
	C430.732483,105.621658 431.381348,105.699043 432.030212,105.776436 
	C449.586029,131.350586 459.908997,159.679245 463.112885,190.424728 
	C464.311462,201.926941 463.649628,213.623016 463.552185,225.614471 
	C463.268341,225.998260 462.985229,225.979462 462.866821,225.725906 
	C462.497986,224.971802 462.247559,224.471252 461.999603,223.535400 
	C462.036743,221.062576 462.071442,219.025040 462.405609,216.781754 
	C464.524139,213.283508 465.062775,210.061966 462.165009,206.750595 
	C462.142242,206.284851 462.130707,206.098663 462.306702,205.615417 
	C462.628571,202.843201 462.762939,200.368057 462.627075,197.895630 
	C461.997620,197.925766 461.638397,197.953171 461.279205,197.980576 
M463.485596,220.709518 
	C463.441406,220.678635 463.397247,220.647751 463.485596,220.709518 
z"/>
<path fill="#27AE71" opacity="1.000000" stroke="none" 
	d="
M182.351196,377.716736 
	C181.982727,376.729584 181.959000,375.865509 181.916565,374.677917 
	C198.476410,383.281586 215.753479,390.551971 234.281815,394.091187 
	C245.814148,396.294006 257.599152,397.173981 269.835571,399.066772 
	C272.339355,400.036926 274.278320,400.587982 276.217316,401.139069 
	C273.738464,401.176056 271.259613,401.213043 268.292786,401.089355 
	C267.519989,400.832489 267.241425,400.853699 266.969116,400.992279 
	C266.969116,400.992279 266.493317,401.079742 265.955627,400.857605 
	C263.648041,400.618835 261.878082,400.602234 260.108154,400.585602 
	C239.097778,399.481262 219.079422,394.215088 199.805206,385.994232 
	C193.999039,383.517761 188.393417,380.571075 182.351196,377.716736 
z"/>
<path fill="#29A96D" opacity="1.000000" stroke="none" 
	d="
M321.681824,27.996569 
	C321.850830,28.675501 321.689209,29.222418 321.424896,29.957600 
	C302.997864,25.864044 284.452271,23.766113 265.123169,24.443516 
	C261.988434,24.016348 259.350037,23.648252 256.364868,23.126511 
	C266.076050,22.591322 276.211670,21.260328 286.171967,22.074404 
	C297.977264,23.039276 309.631500,25.852448 321.681824,27.996569 
z"/>
<path fill="#1EA767" opacity="1.000000" stroke="none" 
	d="
M91.919205,159.627060 
	C92.401443,160.581573 92.687340,161.829803 93.199310,163.083939 
	C91.523590,173.669739 89.621796,184.249603 87.731720,195.111908 
	C87.406349,193.493698 86.955750,191.604736 86.758644,189.689667 
	C86.459396,186.782242 85.805328,183.773056 86.249290,180.956390 
	C87.156631,175.199844 88.642548,169.530151 90.010498,163.853683 
	C90.340408,162.484650 91.139526,161.228714 91.919205,159.627060 
z"/>
<path fill="#29AD72" opacity="1.000000" stroke="none" 
	d="
M287.207001,398.449036 
	C293.973511,397.553894 300.739990,396.658783 308.109375,395.880127 
	C309.144287,396.578033 309.576294,397.159485 310.008301,397.740936 
	C303.595520,398.694824 297.182770,399.648743 290.189209,400.460571 
	C289.408752,400.191986 289.202850,400.076569 288.826965,399.804626 
	C288.177795,399.240997 287.692413,398.845001 287.207001,398.449036 
z"/>
<path fill="#21A166" opacity="1.000000" stroke="none" 
	d="
M458.129761,259.537415 
	C457.939941,258.864746 457.939941,257.892151 457.939941,255.755630 
	C456.782562,258.033630 456.157349,259.264221 455.337097,260.730896 
	C456.116669,256.477570 457.091217,251.988098 458.532349,247.041077 
	C460.104279,245.420822 462.055298,244.277328 459.079773,243.021988 
	C459.566040,239.453400 460.052277,235.884796 460.728485,232.352600 
	C460.963440,232.921875 461.008453,233.454727 460.973145,234.341797 
	C460.692993,236.310333 460.493195,237.924698 460.293396,239.539062 
	C460.680481,239.574600 461.067566,239.610123 461.454651,239.645660 
	C461.638184,238.437378 461.821716,237.229080 462.162231,236.006653 
	C462.319214,235.992508 462.634399,235.998184 462.634399,235.998184 
	C461.196136,243.744614 459.757843,251.491043 458.129761,259.537415 
z"/>
<path fill="#22B36E" opacity="1.000000" stroke="none" 
	d="
M87.288712,217.424759 
	C86.741394,219.858521 86.261398,222.105286 85.521423,224.593124 
	C85.071770,217.705811 84.882088,210.577438 84.557854,203.047501 
	C85.229202,202.238235 86.035110,201.830536 86.953445,202.000977 
	C87.094604,202.772110 87.123337,202.965103 87.152069,203.158081 
	C87.152069,203.158081 87.138680,203.087769 87.102501,203.192337 
	C86.981911,203.564987 87.035522,203.806793 87.227158,204.022339 
	C87.277626,204.451996 87.328102,204.881668 87.209152,205.757904 
	C86.953445,206.511963 87.003281,206.798904 87.189224,207.065292 
	C87.386002,207.366028 87.425133,207.686035 87.167938,208.745087 
	C87.030754,211.829742 87.032257,214.194626 87.033760,216.559525 
	C87.296211,216.711899 87.403633,216.937988 87.288712,217.424759 
z"/>
<path fill="#1BB66E" opacity="1.000000" stroke="none" 
	d="
M288.990753,399.972260 
	C289.202850,400.076569 289.408752,400.191986 289.753296,400.419800 
	C289.012451,400.649200 288.126801,400.777313 286.822327,400.910706 
	C286.403503,400.915985 286.462769,400.904968 286.462769,400.904968 
	C284.937195,401.003479 283.411591,401.101990 281.040222,401.113861 
	C279.401367,401.045197 278.608368,401.063171 277.815338,401.081146 
	C277.460114,401.148651 277.104919,401.216125 276.483521,401.211365 
	C274.278320,400.587982 272.339355,400.036926 270.224854,399.156830 
	C270.049316,398.827820 270.519989,398.708435 270.869202,398.844727 
	C271.218414,398.981049 271.613800,399.024994 271.613800,399.024994 
	C271.613800,399.024994 271.982483,398.863831 271.982483,398.863831 
	C271.982483,398.863831 272.364075,398.776611 273.016479,398.862000 
	C274.937775,398.945496 276.206696,398.943573 277.475586,398.941650 
	C277.475586,398.941650 277.706238,398.757721 277.964600,398.875031 
	C278.222931,398.992340 278.624237,399.024536 278.624237,399.024536 
	C278.624237,399.024536 278.994202,398.854706 278.994202,398.854706 
	C278.994202,398.854706 279.460815,398.730591 280.043549,398.989197 
	C283.414429,399.489288 286.202606,399.730774 288.990753,399.972260 
z"/>
<path fill="#1EB46F" opacity="1.000000" stroke="none" 
	d="
M462.758331,235.595856 
	C462.634399,235.998184 462.319214,235.992508 462.079956,235.735931 
	C461.578339,234.982086 461.315918,234.484833 461.053497,233.987595 
	C461.008453,233.454727 460.963440,232.921875 460.840607,231.993896 
	C460.795624,230.558456 460.828461,229.518127 460.985840,228.039490 
	C461.110413,227.601166 461.087555,227.476547 461.087555,227.476547 
	C461.095123,226.581940 461.102692,225.687317 461.399963,224.386230 
	C461.689667,223.979767 461.997131,223.970718 461.997131,223.970718 
	C462.247559,224.471252 462.497986,224.971802 462.868896,226.152573 
	C463.038147,228.230667 463.086853,229.628540 463.135559,231.026413 
	C463.051117,232.415451 462.966705,233.804489 462.758331,235.595856 
z"/>
<path fill="#21A166" opacity="1.000000" stroke="none" 
	d="
M453.407715,274.413757 
	C454.299805,270.961853 455.473511,267.255493 456.867493,263.255432 
	C455.954987,266.694275 454.822144,270.426758 453.407715,274.413757 
z"/>
<path fill="#29AD72" opacity="1.000000" stroke="none" 
	d="
M317.246826,393.866150 
	C318.603546,394.242279 319.662811,394.579987 320.933655,395.110535 
	C320.487823,395.501862 319.830383,395.700317 318.538269,395.884338 
	C316.959747,395.647491 316.015930,395.425140 315.003235,395.059509 
	C314.934357,394.916229 314.798004,394.628967 314.798004,394.628967 
	C315.515137,394.361908 316.232239,394.094818 317.246826,393.866150 
z"/>
<path fill="#25AE71" opacity="1.000000" stroke="none" 
	d="
M310.322449,397.758667 
	C309.576294,397.159485 309.144287,396.578033 308.521545,395.882141 
	C309.080383,395.515015 309.829956,395.262329 311.014832,395.237976 
	C311.982239,396.013519 312.514282,396.560669 313.046295,397.107849 
	C312.243073,397.330688 311.439850,397.553558 310.322449,397.758667 
z"/>
<path fill="#29AD72" opacity="1.000000" stroke="none" 
	d="
M313.282349,397.134644 
	C312.514282,396.560669 311.982239,396.013519 311.307739,395.293945 
	C312.172272,394.924530 313.179260,394.727570 314.492126,394.579773 
	C314.798004,394.628967 314.934357,394.916229 314.852417,395.276123 
	C314.503967,396.096313 314.237488,396.556580 313.971008,397.016876 
	C313.971008,397.016876 313.518402,397.161407 313.282349,397.134644 
z"/>
<path fill="#31A46F" opacity="1.000000" stroke="none" 
	d="
M463.243103,230.768677 
	C463.086853,229.628540 463.038147,228.230667 462.987335,226.406128 
	C462.985229,225.979462 463.268341,225.998260 463.409851,226.009460 
	C463.484467,227.517410 463.417572,229.014160 463.243103,230.768677 
z"/>
<path fill="#1BB66E" opacity="1.000000" stroke="none" 
	d="
M260.517426,400.699036 
	C261.878082,400.602234 263.648041,400.618835 265.720367,400.801392 
	C264.324066,400.915741 262.625397,400.864136 260.517426,400.699036 
z"/>
<path fill="#25AE71" opacity="1.000000" stroke="none" 
	d="
M314.313782,397.044739 
	C314.237488,396.556580 314.503967,396.096313 314.921265,395.419434 
	C316.015930,395.425140 316.959747,395.647491 318.191528,395.887695 
	C317.205200,396.294525 315.930878,396.683533 314.313782,397.044739 
z"/>
<path fill="#26AE72" opacity="1.000000" stroke="none" 
	d="
M429.930328,105.080673 
	C429.712677,105.068222 429.495026,105.055771 428.950592,105.027107 
	C428.366486,104.927971 428.182190,104.763260 428.030884,103.992645 
	C427.951691,103.025368 427.912598,102.582222 427.873535,102.139076 
	C427.873535,102.139076 427.981201,102.021927 428.325928,101.966949 
	C428.865234,101.905670 429.059814,101.899376 429.254364,101.893089 
	C429.400055,102.014580 429.545715,102.136063 429.831665,102.780121 
	C430.014954,103.836670 430.057953,104.370636 430.057983,104.948341 
	C430.015045,104.992081 429.930328,105.080673 429.930328,105.080673 
z"/>
<path fill="#26AE72" opacity="1.000000" stroke="none" 
	d="
M431.992249,105.601379 
	C431.381348,105.699043 430.732483,105.621658 430.006958,105.312469 
	C429.930328,105.080673 430.015045,104.992081 430.369019,104.997696 
	C430.931671,105.030373 431.140350,105.057426 431.348999,105.084480 
	C431.607574,105.097786 431.809326,105.211739 431.992249,105.601379 
z"/>
<path fill="#23AB6F" opacity="1.000000" stroke="none" 
	d="
M431.300354,104.888184 
	C431.140350,105.057426 430.931671,105.030373 430.411987,104.953957 
	C430.057953,104.370636 430.014954,103.836670 429.959534,103.034286 
	C430.381958,103.407867 430.816833,104.049881 431.300354,104.888184 
z"/>
<path fill="#27AE71" opacity="1.000000" stroke="none" 
	d="
M278.076385,401.155212 
	C278.608368,401.063171 279.401367,401.045197 280.587524,401.032959 
	C280.099548,401.102203 279.218506,401.165771 278.076385,401.155212 
z"/>
<path fill="#29A96D" opacity="1.000000" stroke="none" 
	d="
M325.816315,28.838306 
	C325.566132,28.883406 325.117523,28.807165 324.459351,28.648205 
	C324.705780,28.615980 325.161865,28.666475 325.816315,28.838306 
z"/>
<path fill="#23AB6F" opacity="1.000000" stroke="none" 
	d="
M429.176331,101.621292 
	C429.059814,101.899376 428.865234,101.905670 428.379852,101.908417 
	C428.056000,101.508720 428.022980,101.112579 427.975922,100.417648 
	C428.340668,100.529068 428.719482,100.939278 429.176331,101.621292 
z"/>
<path fill="#1BB66E" opacity="1.000000" stroke="none" 
	d="
M267.238647,401.072571 
	C267.241425,400.853699 267.519989,400.832489 267.934143,400.996155 
	C267.878387,401.093414 267.693268,401.123138 267.238647,401.072571 
z"/>
<path fill="#21A166" opacity="1.000000" stroke="none" 
	d="
M457.232361,262.324097 
	C457.156891,262.205750 457.237305,261.878662 457.426910,261.325958 
	C457.486816,261.438690 457.437500,261.777039 457.232361,262.324097 
z"/>
<path fill="#27AE71" opacity="1.000000" stroke="none" 
	d="
M286.422058,400.929749 
	C286.462769,400.904968 286.403503,400.915985 286.373230,400.913605 
	C286.342957,400.911224 286.381348,400.954498 286.422058,400.929749 
z"/>
<path fill="#154896" opacity="1.000000" stroke="none" 
	d="
M298.900269,79.226257 
	C317.168976,82.878937 334.191589,89.484650 349.623901,100.104225 
	C376.231567,118.413971 394.573151,142.894577 402.951752,174.037811 
	C415.942505,222.324219 405.323090,265.366791 371.796417,302.527191 
	C356.712585,319.245880 338.351746,331.110138 316.134949,337.981323 
	C314.648346,338.465302 313.833435,338.873352 313.018494,339.281403 
	C312.258423,339.460968 311.498383,339.640564 310.322510,339.586029 
	C312.272766,337.726929 314.638763,336.101990 317.351379,334.421082 
	C318.163116,334.319855 318.628296,334.274628 319.287781,334.297791 
	C320.015839,334.033905 320.549530,333.701569 321.182587,333.258575 
	C321.281921,333.147888 321.570862,333.077118 321.717255,333.040802 
	C321.863647,333.004486 322.152893,332.918701 322.332458,332.807159 
	C322.511993,332.695618 322.932159,332.648193 322.932159,332.648193 
	C322.932159,332.648193 323.316132,332.825195 323.676605,332.788574 
	C325.026276,332.164612 326.015503,331.577271 327.278198,330.810059 
	C328.157898,330.383820 328.764099,330.137390 329.441620,329.848022 
	C329.512939,329.805054 329.783539,329.613556 330.100098,329.408020 
	C345.760223,321.576447 359.363464,311.667664 370.994904,298.998535 
	C385.336212,283.377777 395.219269,265.174927 400.630005,244.918457 
	C404.653259,229.856293 406.006012,214.282608 404.443329,198.475571 
	C401.596283,169.675903 390.449738,144.705963 371.267029,123.260124 
	C356.578796,106.839005 338.542877,95.259056 317.803619,87.241760 
	C316.214142,86.629951 314.825256,86.250542 313.294556,85.829819 
	C313.152710,85.788513 312.954987,85.568977 312.663269,85.403679 
	C306.957886,84.049423 301.544189,82.860458 295.778687,81.669006 
	C294.281677,81.423637 293.136505,81.180748 291.790863,80.783829 
	C291.053833,79.772850 290.517212,78.915901 289.980621,78.058960 
	C290.558105,78.076065 291.135620,78.093163 292.124084,78.101952 
	C292.535034,78.093636 292.490356,78.109230 292.490356,78.109230 
	C293.082520,78.234055 293.674683,78.358871 294.803802,78.781830 
	C296.527252,79.128723 297.713776,79.177490 298.900269,79.226257 
z"/>
<path fill="#154793" opacity="1.000000" stroke="none" 
	d="
M317.004791,334.477051 
	C314.638763,336.101990 312.272766,337.726929 309.932434,339.618317 
	C299.389496,341.635956 288.872620,344.384552 278.241821,344.935638 
	C254.399460,346.171509 231.961273,340.114349 210.831192,329.156860 
	C193.765045,320.306793 179.604950,307.896393 167.829117,292.851746 
	C155.178848,276.689850 146.630630,258.511261 142.904434,238.091721 
	C143.836426,237.748917 144.604538,237.572479 145.566376,237.707611 
	C146.980423,242.154221 148.091766,246.325089 149.437973,250.418732 
	C161.858322,288.187042 186.223145,315.316620 222.652039,331.146454 
	C253.534790,344.566284 285.138885,345.107208 317.004791,334.477051 
z"/>
<path fill="#154998" opacity="1.000000" stroke="none" 
	d="
M141.033752,227.948746 
	C138.094345,208.873520 140.122757,190.174973 145.726990,171.852631 
	C155.645218,139.426178 175.420013,114.382408 203.989075,96.458351 
	C211.636490,91.660408 220.397354,88.637161 229.281494,84.875977 
	C230.269180,85.677734 230.622437,86.402702 230.767181,87.214554 
	C230.253098,87.388626 229.959183,87.359261 229.322601,87.237175 
	C227.971725,87.792580 226.975143,88.324142 225.707825,89.074722 
	C215.748001,94.693184 205.489410,99.288010 196.487930,105.658981 
	C177.550613,119.062271 163.673111,136.850861 154.299042,158.188171 
	C147.521301,173.615677 144.166824,189.744583 142.953690,206.375793 
	C142.925888,210.227036 143.051346,214.153717 143.271423,218.490295 
	C143.486084,221.637253 143.606094,224.374298 143.593445,227.411987 
	C143.327560,228.799820 143.194366,229.886978 143.026962,230.987518 
	C142.992767,231.000900 142.924347,231.027542 142.786911,230.813156 
	C142.110901,229.715424 141.572327,228.832092 141.033752,227.948746 
z"/>
<path fill="#13458F" opacity="1.000000" stroke="none" 
	d="
M230.975708,87.127670 
	C230.622437,86.402702 230.269180,85.677734 229.654144,84.851028 
	C241.211517,79.418053 253.785339,77.372894 266.574097,76.873116 
	C274.137329,76.577560 281.741699,77.333817 289.654114,77.838028 
	C290.517212,78.915901 291.053833,79.772850 291.497131,80.891830 
	C284.466827,80.771889 277.405151,79.382332 270.619324,80.221901 
	C257.323486,81.866928 244.181412,84.754417 230.975708,87.127670 
z"/>
<path fill="#21A166" opacity="1.000000" stroke="none" 
	d="
M461.999603,223.535400 
	C461.997131,223.970718 461.689667,223.979767 461.537415,223.959747 
	C461.293884,215.516998 461.202637,207.094269 461.195312,198.326050 
	C461.638397,197.953171 461.997620,197.925766 462.586487,198.294418 
	C462.583832,201.097809 462.351501,203.505157 462.119202,205.912491 
	C462.130707,206.098663 462.142242,206.284851 462.140045,207.200409 
	C462.119598,210.949020 462.112854,213.968277 462.106140,216.987518 
	C462.071442,219.025040 462.036743,221.062576 461.999603,223.535400 
z"/>
<path fill="#154998" opacity="1.000000" stroke="none" 
	d="
M145.372635,237.396042 
	C144.604538,237.572479 143.836426,237.748917 142.968323,237.745392 
	C142.621841,236.344269 142.375351,235.123093 142.250519,233.214783 
	C142.556213,232.027618 142.740265,231.527573 142.924347,231.027542 
	C142.924347,231.027542 142.992767,231.000900 143.195709,231.270966 
	C143.988068,232.718857 144.577469,233.896683 145.267059,235.354126 
	C145.369049,236.221176 145.370834,236.808609 145.372635,237.396042 
z"/>
<path fill="#27AE71" opacity="1.000000" stroke="none" 
	d="
M288.826965,399.804626 
	C286.202606,399.730774 283.414429,399.489288 280.279968,399.038086 
	C282.081970,398.663147 284.230347,398.497925 286.792847,398.390869 
	C287.692413,398.845001 288.177795,399.240997 288.826965,399.804626 
z"/>
<path fill="#13458F" opacity="1.000000" stroke="none" 
	d="
M298.650085,79.061996 
	C297.713776,79.177490 296.527252,79.128723 295.090576,78.878616 
	C296.026855,78.750771 297.213379,78.824257 298.650085,79.061996 
z"/>
<path fill="#154793" opacity="1.000000" stroke="none" 
	d="
M142.786896,230.813156 
	C142.740265,231.527573 142.556213,232.027618 142.221222,232.749146 
	C141.715134,231.547943 141.359985,230.125259 141.019287,228.325668 
	C141.572327,228.832092 142.110901,229.715424 142.786896,230.813156 
z"/>
<path fill="#25AE71" opacity="1.000000" stroke="none" 
	d="
M87.162216,216.170639 
	C87.032257,214.194626 87.030754,211.829742 87.030655,208.952850 
	C87.118256,210.887817 87.204460,213.334793 87.162216,216.170639 
z"/>
<path fill="#28AC6E" opacity="1.000000" stroke="none" 
	d="
M458.958740,243.401398 
	C462.055298,244.277328 460.104279,245.420822 458.738312,246.766891 
	C458.597717,245.893799 458.717712,244.837296 458.958740,243.401398 
z"/>
<path fill="#154793" opacity="1.000000" stroke="none" 
	d="
M313.299194,339.287903 
	C313.833435,338.873352 314.648346,338.465302 315.749084,338.035278 
	C315.216583,338.440369 314.398254,338.867401 313.299194,339.287903 
z"/>
<path fill="#27AE71" opacity="1.000000" stroke="none" 
	d="
M277.131042,398.852356 
	C276.206696,398.943573 274.937775,398.945496 273.201294,398.926453 
	C274.084595,398.858002 275.435547,398.810516 277.131042,398.852356 
z"/>
<path fill="#1EA767" opacity="1.000000" stroke="none" 
	d="
M94.106003,161.506073 
	C94.165611,160.713577 94.396492,159.635483 94.817665,158.283707 
	C94.764404,159.080185 94.520836,160.150330 94.106003,161.506073 
z"/>
<path fill="#23AB6F" opacity="1.000000" stroke="none" 
	d="
M427.558044,102.139282 
	C427.912598,102.582222 427.951691,103.025368 428.007385,103.804108 
	C427.627228,103.670906 427.230377,103.202103 426.722687,102.446243 
	C426.822021,102.152618 427.032257,102.146057 427.558044,102.139282 
z"/>
<path fill="#25AE71" opacity="1.000000" stroke="none" 
	d="
M87.251633,206.930634 
	C87.003281,206.798904 86.953445,206.511963 87.110626,206.070099 
	C87.315178,206.203018 87.359352,206.489761 87.251633,206.930634 
z"/>
<path fill="#23AB6F" opacity="1.000000" stroke="none" 
	d="
M425.108704,100.202339 
	C425.314392,100.313332 425.574005,100.630035 425.920837,101.131821 
	C425.726288,101.013947 425.444489,100.710991 425.108704,100.202339 
z"/>
<path fill="#27AE71" opacity="1.000000" stroke="none" 
	d="
M278.742340,398.800537 
	C278.994202,398.854706 278.624237,399.024536 278.624237,399.024536 
	C278.624237,399.024536 278.222931,398.992340 278.104492,398.921814 
	C278.154175,398.816345 278.322327,398.781372 278.742340,398.800537 
z"/>
<path fill="#27AE71" opacity="1.000000" stroke="none" 
	d="
M271.735992,398.798218 
	C271.982483,398.863831 271.613800,399.024994 271.613800,399.024994 
	C271.613800,399.024994 271.218414,398.981049 271.103882,398.907043 
	C271.156036,398.799500 271.322784,398.766022 271.735992,398.798218 
z"/>
<path fill="#13458F" opacity="1.000000" stroke="none" 
	d="
M292.485535,78.058563 
	C292.490356,78.109230 292.535034,78.093636 292.557312,78.109947 
	C292.579590,78.126259 292.480743,78.007889 292.485535,78.058563 
z"/>
<path fill="#25AE71" opacity="1.000000" stroke="none" 
	d="
M87.252274,203.021454 
	C87.123337,202.965103 87.094604,202.772110 87.034714,202.288208 
	C87.119865,202.293137 87.236176,202.588989 87.252274,203.021454 
z"/>
<path fill="#25AE71" opacity="1.000000" stroke="none" 
	d="
M87.282021,203.784485 
	C87.035522,203.806793 86.981911,203.564987 87.137756,203.186157 
	C87.209183,203.075409 87.336884,203.546616 87.282021,203.784485 
z"/>
<path fill="#27AE71" opacity="1.000000" stroke="none" 
	d="
M181.401642,373.977417 
	C181.379013,373.957886 181.484543,373.948669 181.508118,373.961548 
	C181.531708,373.974426 181.424255,373.996979 181.401642,373.977417 
z"/>
<path fill="#21A166" opacity="1.000000" stroke="none" 
	d="
M461.014771,227.458008 
	C461.087555,227.476547 461.110413,227.601166 461.090149,227.659210 
	C461.069885,227.717255 460.941986,227.439453 461.014771,227.458008 
z"/>
<path fill="#31A46F" opacity="1.000000" stroke="none" 
	d="
M462.405609,216.781754 
	C462.112854,213.968277 462.119598,210.949020 462.151276,207.479980 
	C465.062775,210.061966 464.524139,213.283508 462.405609,216.781754 
z"/>
<path fill="#31A46F" opacity="1.000000" stroke="none" 
	d="
M462.306702,205.615417 
	C462.351501,203.505157 462.583832,201.097809 462.856750,198.291687 
	C462.762939,200.368057 462.628571,202.843201 462.306702,205.615417 
z"/>
<path fill="#31A46F" opacity="1.000000" stroke="none" 
	d="
M463.419312,220.663193 
	C463.397247,220.647751 463.441406,220.678635 463.419312,220.663193 
z"/>
<path fill="#26AE72" opacity="1.000000" stroke="none" 
	d="
M433.933807,113.066833 
	C433.946594,113.066711 434.007660,113.008163 433.981506,113.043564 
	C433.894348,113.137505 433.982086,113.008408 433.933807,113.066833 
z"/>
<path fill="#28AC6E" opacity="1.000000" stroke="none" 
	d="
M460.973145,234.341797 
	C461.315918,234.484833 461.578339,234.982086 461.922974,235.750061 
	C461.821716,237.229080 461.638184,238.437378 461.454651,239.645660 
	C461.067566,239.610123 460.680481,239.574600 460.293396,239.539062 
	C460.493195,237.924698 460.692993,236.310333 460.973145,234.341797 
z"/>
<path fill="#000102" opacity="1.000000" stroke="none" 
	d="
M145.566376,237.707611 
	C145.370834,236.808609 145.369049,236.221176 145.336655,235.027969 
	C144.779404,231.985245 144.252762,229.548279 143.726120,227.111328 
	C143.606094,224.374298 143.486084,221.637253 143.355652,218.089996 
	C143.265793,213.670242 143.186371,210.060745 143.106934,206.451233 
	C144.166824,189.744583 147.521301,173.615677 154.299042,158.188171 
	C163.673111,136.850861 177.550613,119.062271 196.487930,105.658981 
	C205.489410,99.288010 215.748001,94.693184 226.051666,89.042618 
	C227.669800,88.265434 228.673355,87.739380 229.676910,87.213326 
	C229.959183,87.359261 230.253098,87.388626 230.767181,87.214554 
	C244.181412,84.754417 257.323486,81.866928 270.619324,80.221901 
	C277.405151,79.382332 284.466827,80.771889 291.697571,81.045868 
	C293.136505,81.180748 294.281677,81.423637 296.077698,81.899780 
	C302.137360,83.278343 307.546173,84.423660 312.954987,85.568977 
	C312.954987,85.568977 313.152710,85.788513 313.509644,86.042404 
	C315.245819,86.688919 316.625000,87.081543 318.004211,87.474167 
	C338.542877,95.259056 356.578796,106.839005 371.267029,123.260124 
	C390.449738,144.705963 401.596283,169.675903 404.443329,198.475571 
	C406.006012,214.282608 404.653259,229.856293 400.630005,244.918457 
	C395.219269,265.174927 385.336212,283.377777 370.994904,298.998535 
	C359.363464,311.667664 345.760223,321.576447 330.000610,329.387695 
	C329.584534,329.572937 329.370300,329.890961 329.370300,329.890991 
	C328.764099,330.137390 328.157898,330.383820 327.026428,330.811462 
	C325.439514,331.603546 324.377808,332.214386 323.316132,332.825195 
	C323.316132,332.825195 322.932159,332.648193 322.932159,332.648193 
	C322.932159,332.648193 322.511993,332.695618 322.249084,332.748352 
	C321.749969,332.766968 321.611542,332.858978 321.570862,333.077118 
	C321.570862,333.077118 321.281921,333.147888 320.905518,333.293976 
	C320.050537,333.703156 319.571991,333.966278 319.093445,334.229370 
	C318.628296,334.274628 318.163116,334.319855 317.351379,334.421082 
	C285.138885,345.107208 253.534790,344.566284 222.652039,331.146454 
	C186.223145,315.316620 161.858322,288.187042 149.437973,250.418732 
	C148.091766,246.325089 146.980423,242.154221 145.566376,237.707611 
M212.309799,153.799561 
	C211.755051,154.420883 211.192947,155.035828 210.646576,155.664444 
	C188.339691,181.329834 183.582260,217.354797 198.633881,246.616013 
	C214.671158,277.793427 246.401474,295.081024 281.070923,291.529999 
	C321.909515,287.347168 353.399567,251.959213 353.972778,210.824188 
	C354.436737,177.530472 333.518585,145.548141 302.414642,133.996109 
	C268.753937,121.494492 238.639236,128.219116 212.309799,153.799561 
z"/>
<path fill="#13458F" opacity="1.000000" stroke="none" 
	d="
M312.663269,85.403679 
	C307.546173,84.423660 302.137360,83.278343 296.429535,81.902267 
	C301.544189,82.860458 306.957886,84.049423 312.663269,85.403679 
z"/>
<path fill="#13458F" opacity="1.000000" stroke="none" 
	d="
M317.803619,87.241760 
	C316.625000,87.081543 315.245819,86.688919 313.651489,86.083710 
	C314.825256,86.250542 316.214142,86.629951 317.803619,87.241760 
z"/>
<path fill="#154793" opacity="1.000000" stroke="none" 
	d="
M323.676605,332.788574 
	C324.377808,332.214386 325.439514,331.603546 326.752930,330.991333 
	C326.015503,331.577271 325.026276,332.164612 323.676605,332.788574 
z"/>
<path fill="#154793" opacity="1.000000" stroke="none" 
	d="
M319.287781,334.297791 
	C319.571991,333.966278 320.050537,333.703156 320.806152,333.404663 
	C320.549530,333.701569 320.015839,334.033905 319.287781,334.297791 
z"/>
<path fill="#154793" opacity="1.000000" stroke="none" 
	d="
M321.717255,333.040802 
	C321.611542,332.858978 321.749969,332.766968 322.069550,332.859924 
	C322.152893,332.918701 321.863647,333.004486 321.717255,333.040802 
z"/>
<path fill="#154793" opacity="1.000000" stroke="none" 
	d="
M329.441620,329.848022 
	C329.370300,329.890961 329.584534,329.572937 329.684021,329.593262 
	C329.783539,329.613556 329.512939,329.805054 329.441620,329.848022 
z"/>
<path fill="#154793" opacity="1.000000" stroke="none" 
	d="
M142.953690,206.375793 
	C143.186371,210.060745 143.265793,213.670242 143.261017,217.680069 
	C143.051346,214.153717 142.925888,210.227036 142.953690,206.375793 
z"/>
<path fill="#154793" opacity="1.000000" stroke="none" 
	d="
M143.593445,227.411987 
	C144.252762,229.548279 144.779404,231.985245 145.236465,234.748352 
	C144.577469,233.896683 143.988068,232.718857 143.229904,231.257599 
	C143.194366,229.886978 143.327560,228.799820 143.593445,227.411987 
z"/>
<path fill="#13458F" opacity="1.000000" stroke="none" 
	d="
M229.322601,87.237175 
	C228.673355,87.739380 227.669800,88.265434 226.322403,88.823593 
	C226.975143,88.324142 227.971725,87.792580 229.322601,87.237175 
z"/>
<path fill="#0496CF" opacity="1.000000" stroke="none" 
	d="
M212.526398,153.522598 
	C238.639236,128.219116 268.753937,121.494492 302.414642,133.996109 
	C333.518585,145.548141 354.436737,177.530472 353.972778,210.824188 
	C353.399567,251.959213 321.909515,287.347168 281.070923,291.529999 
	C246.401474,295.081024 214.671158,277.793427 198.633881,246.616013 
	C183.582260,217.354797 188.339691,181.329834 210.646576,155.664444 
	C211.192947,155.035828 211.755051,154.420883 212.526398,153.522598 
M205.244598,238.859390 
	C206.738861,241.005478 208.158264,243.208572 209.741287,245.287048 
	C214.638626,251.717178 218.707779,259.169434 224.770279,264.216797 
	C231.590256,269.894806 239.957901,273.987122 248.138763,277.696289 
	C262.094299,284.023712 276.785645,281.914185 291.328461,279.839874 
	C291.804016,279.772003 292.616608,279.558594 292.656647,279.312836 
	C293.596039,273.545441 298.327484,276.022064 301.528564,275.103912 
	C304.051849,274.380188 306.740448,273.671814 308.863190,272.231079 
	C313.099609,269.355804 317.414886,266.381531 320.928101,262.711487 
	C325.125580,258.326630 329.219910,253.551605 332.091644,248.258072 
	C336.293121,240.513443 341.083862,232.450882 342.529510,223.994888 
	C344.827332,210.554443 344.248901,196.723251 338.152313,183.842850 
	C336.167511,179.649536 334.874939,175.011002 332.294647,171.240692 
	C326.257385,162.419006 319.314606,154.182571 309.560272,149.286926 
	C301.913452,145.449036 294.049561,141.674759 285.855652,139.425812 
	C280.414978,137.932495 274.442078,137.950027 268.332001,138.624084 
	C252.519287,140.368500 238.322662,145.227264 225.814758,155.016205 
	C223.609909,156.741760 220.739594,158.106888 219.401566,160.364471 
	C213.901016,169.645309 204.611328,176.790024 203.478790,188.571320 
	C202.738358,196.273544 200.736008,203.985504 201.042709,211.623077 
	C201.398499,220.482452 203.663559,229.265182 205.244598,238.859390 
z"/>
<path fill="#00A6CD" opacity="1.000000" stroke="none" 
	d="
M205.172226,238.470276 
	C203.663559,229.265182 201.398499,220.482452 201.042709,211.623077 
	C200.736008,203.985504 202.738358,196.273544 203.478790,188.571320 
	C204.611328,176.790024 213.901016,169.645309 219.401566,160.364471 
	C220.739594,158.106888 223.609909,156.741760 225.814758,155.016205 
	C238.322662,145.227264 252.519287,140.368500 268.332001,138.624084 
	C274.442078,137.950027 280.414978,137.932495 285.855652,139.425812 
	C294.049561,141.674759 301.913452,145.449036 309.560272,149.286926 
	C319.314606,154.182571 326.257385,162.419006 332.294647,171.240692 
	C334.874939,175.011002 336.167511,179.649536 338.152313,183.842850 
	C344.248901,196.723251 344.827332,210.554443 342.529510,223.994888 
	C341.083862,232.450882 336.293121,240.513443 332.091644,248.258072 
	C329.219910,253.551605 325.125580,258.326630 320.928101,262.711487 
	C317.414886,266.381531 313.099609,269.355804 308.863190,272.231079 
	C306.740448,273.671814 304.051849,274.380188 301.528564,275.103912 
	C298.327484,276.022064 293.596039,273.545441 292.656647,279.312836 
	C292.616608,279.558594 291.804016,279.772003 291.328461,279.839874 
	C276.785645,281.914185 262.094299,284.023712 248.138763,277.696289 
	C239.957901,273.987122 231.590256,269.894806 224.770279,264.216797 
	C218.707779,259.169434 214.638626,251.717178 209.741287,245.287048 
	C208.158264,243.208572 206.738861,241.005478 205.172226,238.470276 
M315.484344,256.953979 
	C316.575165,255.702454 317.585022,254.368011 318.769226,253.212143 
	C331.769257,240.523209 336.526489,224.164566 336.394989,206.990936 
	C336.302856,194.959137 331.151917,183.351700 324.296387,173.152542 
	C316.639648,161.761475 305.730225,154.255035 292.923157,149.713455 
	C287.164398,147.671326 280.951599,145.155777 275.092743,145.485260 
	C258.831390,146.399719 243.465347,150.424744 230.306900,161.280258 
	C220.208160,169.611557 215.358765,180.923721 210.096680,192.129730 
	C209.024796,194.412415 209.260651,197.335571 209.021225,199.975067 
	C208.796265,202.455322 208.487213,204.968292 208.657410,207.436371 
	C209.144974,214.506546 208.660248,221.932938 210.715225,228.549164 
	C215.935883,245.357529 226.641998,258.107971 242.331177,266.585297 
	C251.945496,271.780182 262.091553,274.010162 272.945587,273.889069 
	C284.852661,273.756195 295.839020,270.778992 305.743408,264.108551 
	C308.887817,261.990845 311.912964,259.696106 315.484344,256.953979 
z"/>
<path fill="#00AEC7" opacity="1.000000" stroke="none" 
	d="
M315.238495,257.218170 
	C311.912964,259.696106 308.887817,261.990845 305.743408,264.108551 
	C295.839020,270.778992 284.852661,273.756195 272.945587,273.889069 
	C262.091553,274.010162 251.945496,271.780182 242.331177,266.585297 
	C226.641998,258.107971 215.935883,245.357529 210.715225,228.549164 
	C208.660248,221.932938 209.144974,214.506546 208.657410,207.436371 
	C208.487213,204.968292 208.796265,202.455322 209.021225,199.975067 
	C209.260651,197.335571 209.024796,194.412415 210.096680,192.129730 
	C215.358765,180.923721 220.208160,169.611557 230.306900,161.280258 
	C243.465347,150.424744 258.831390,146.399719 275.092743,145.485260 
	C280.951599,145.155777 287.164398,147.671326 292.923157,149.713455 
	C305.730225,154.255035 316.639648,161.761475 324.296387,173.152542 
	C331.151917,183.351700 336.302856,194.959137 336.394989,206.990936 
	C336.526489,224.164566 331.769257,240.523209 318.769226,253.212143 
	C317.585022,254.368011 316.575165,255.702454 315.238495,257.218170 
M329.880737,224.174988 
	C331.969238,209.268463 331.824463,194.905823 323.766632,181.202774 
	C308.835419,155.811035 283.014771,146.216049 255.530182,153.023010 
	C245.593384,155.483994 237.761505,161.252670 230.261826,168.200577 
	C217.851883,179.697479 212.310455,194.348114 212.409409,210.185455 
	C212.549393,232.594315 223.433060,250.791046 242.859665,261.775543 
	C255.341736,268.833374 269.485229,271.802460 284.676941,267.821930 
	C307.931732,261.728668 322.358887,247.321945 329.880737,224.174988 
z"/>
<path fill="#00B3C3" opacity="1.000000" stroke="none" 
	d="
M329.795746,224.583984 
	C322.358887,247.321945 307.931732,261.728668 284.676941,267.821930 
	C269.485229,271.802460 255.341736,268.833374 242.859665,261.775543 
	C223.433060,250.791046 212.549393,232.594315 212.409409,210.185455 
	C212.310455,194.348114 217.851883,179.697479 230.261826,168.200577 
	C237.761505,161.252670 245.593384,155.483994 255.530182,153.023010 
	C283.014771,146.216049 308.835419,155.811035 323.766632,181.202774 
	C331.824463,194.905823 331.969238,209.268463 329.795746,224.583984 
M327.002289,206.331970 
	C327.002350,205.888184 327.002380,205.444397 327.357208,204.340607 
	C327.401306,202.875580 327.532623,201.407104 327.475006,199.946075 
	C327.155304,191.834717 322.142548,185.860458 318.320770,179.242523 
	C311.112793,166.760895 299.923981,159.545898 286.746948,155.644104 
	C270.153351,150.730637 254.460236,154.213104 240.270676,163.896042 
	C229.970673,170.924759 221.769348,180.327820 218.504242,192.248032 
	C212.235687,215.133224 216.786713,235.888916 234.939117,252.342941 
	C246.635147,262.944611 260.928589,267.293976 276.391937,266.113953 
	C288.665741,265.177277 299.701477,260.524353 309.105469,251.824738 
	C321.096313,240.731949 327.682007,227.379913 328.811279,211.248459 
	C328.907043,209.880417 327.637634,208.416779 327.002289,206.331970 
z"/>
<path fill="#00B6C1" opacity="1.000000" stroke="none" 
	d="
M327.002441,206.997559 
	C327.637634,208.416779 328.907043,209.880417 328.811279,211.248459 
	C327.682007,227.379913 321.096313,240.731949 309.105469,251.824738 
	C299.701477,260.524353 288.665741,265.177277 276.391937,266.113953 
	C260.928589,267.293976 246.635147,262.944611 234.939117,252.342941 
	C216.786713,235.888916 212.235687,215.133224 218.504242,192.248032 
	C221.769348,180.327820 229.970673,170.924759 240.270676,163.896042 
	C254.460236,154.213104 270.153351,150.730637 286.746948,155.644104 
	C299.923981,159.545898 311.112793,166.760895 318.320770,179.242523 
	C322.142548,185.860458 327.155304,191.834717 327.475006,199.946075 
	C327.532623,201.407104 327.401306,202.875580 326.928894,204.670547 
	C326.333282,205.000488 326.166016,205.000488 325.998840,204.625519 
	C325.998413,203.500717 325.997986,202.750854 325.957886,201.613953 
	C324.945862,198.817749 323.973541,196.408569 323.000793,193.666260 
	C322.999817,192.888962 322.999268,192.444778 322.878418,191.732422 
	C322.172455,190.975739 321.586823,190.487259 320.861389,189.679230 
	C317.163452,183.829926 314.421539,177.460419 309.828125,172.995895 
	C304.773651,168.083267 298.016541,164.922424 291.834625,160.692566 
	C285.495087,157.206924 279.268463,154.267929 271.600098,156.000778 
	C270.133728,156.001175 269.067230,156.001495 267.625610,156.004852 
	C265.833618,156.338791 264.416809,156.669708 262.625092,157.000671 
	C261.500397,157.000916 260.750580,157.001099 259.732574,157.121597 
	C258.975830,157.827484 258.487305,158.413040 257.628784,159.043060 
	C250.578262,162.676254 243.315155,165.507507 237.383575,170.069916 
	C231.622406,174.501282 226.204453,180.019821 224.998550,188.247681 
	C224.998978,188.496704 224.994308,188.994736 224.661896,188.995728 
	C223.886124,188.997589 223.442764,188.998489 222.682693,189.150253 
	C221.244476,192.534332 220.122955,195.767548 219.001221,199.375641 
	C219.000885,200.500366 219.000748,201.250183 218.829224,202.270935 
	C218.439163,203.361649 218.220490,204.181442 218.001465,205.449646 
	C218.001373,208.598312 218.001602,211.298553 218.004852,214.374023 
	C218.338821,216.166168 218.669754,217.583084 219.000916,219.333191 
	C219.001343,220.110641 219.001556,220.554916 219.037445,221.364639 
	C220.048340,223.487061 221.023560,225.244019 221.999069,227.375763 
	C221.999954,228.500168 222.000549,229.249771 222.121567,230.267578 
	C222.827774,231.024063 223.413589,231.512329 224.083405,232.310547 
	C224.778473,233.746979 225.389542,234.873489 226.096375,236.331818 
	C227.794571,238.775955 229.396973,240.888275 231.096710,243.329956 
	C233.096085,247.206909 235.508057,250.046677 239.999039,250.000977 
	C240.000000,250.000000 239.997559,250.002563 239.997925,250.335434 
	C239.998856,251.112198 239.999435,251.556107 240.103180,252.320435 
	C241.804306,253.760361 243.402267,254.879883 245.302948,256.148071 
	C247.070236,256.864899 248.534805,257.433044 250.167160,258.293030 
	C251.556595,259.056580 252.778259,259.528290 254.270691,260.171326 
	C255.360565,260.562164 256.179688,260.781708 257.119843,261.269104 
	C257.827576,262.024017 258.414276,262.511108 259.400818,262.998291 
	C260.867157,262.998627 261.933563,262.998840 263.319641,263.177673 
	C265.093262,263.570007 266.547241,263.783783 268.417053,263.998383 
	C270.221954,263.999054 271.610962,263.998901 273.277557,264.104675 
	C274.703430,264.139984 275.851746,264.069366 277.333344,263.999023 
	C278.110687,263.998718 278.554718,263.998138 279.268494,263.915161 
	C280.025482,263.554901 280.512726,263.277039 281.333374,262.999390 
	C282.110870,262.999146 282.554993,262.998749 283.376190,262.913513 
	C286.835754,261.552826 289.918274,260.277039 293.330017,258.923401 
	C295.106171,258.230225 296.553070,257.614899 298.336639,256.917847 
	C300.115540,255.557587 301.557831,254.279099 303.265564,252.800003 
	C306.688019,248.733627 309.845062,244.867874 313.001038,241.001053 
	C313.000000,241.000000 313.002441,241.001587 313.326019,240.891907 
	C316.433472,235.855133 319.217346,230.928024 322.315094,225.853516 
	C323.752258,222.803818 324.875519,219.901535 325.998932,216.624329 
	C325.999298,215.499619 325.999512,214.749817 326.181519,213.658035 
	C326.576385,211.209900 326.789398,209.103729 327.002441,206.997559 
z"/>
<path fill="#00B8BE" opacity="1.000000" stroke="none" 
	d="
M325.998779,205.000473 
	C326.166016,205.000488 326.333282,205.000488 326.751526,205.000549 
	C327.002380,205.444397 327.002350,205.888184 327.002380,206.664764 
	C326.789398,209.103729 326.576385,211.209900 326.001068,213.315155 
	C325.758759,210.542969 325.878784,207.771729 325.998779,205.000473 
z"/>
<path fill="#00BEBB" opacity="1.000000" stroke="none" 
	d="
M224.994293,188.994736 
	C224.994308,188.994736 224.998978,188.496704 225.276947,188.061401 
	C227.109039,185.919037 228.988190,184.409637 230.165604,182.473495 
	C239.126389,167.738434 252.616364,160.757477 269.387573,160.097641 
	C289.463593,159.307785 304.860596,167.448792 315.193146,185.089569 
	C324.888458,201.642410 325.032837,217.951431 315.439911,234.500366 
	C314.295349,236.474945 313.799194,238.825378 313.002441,241.001587 
	C313.002441,241.001587 313.000000,241.000000 312.675110,241.097855 
	C311.195648,242.104630 310.090759,243.086670 308.878326,243.910416 
	C301.932648,248.629379 294.961426,253.310760 287.665955,258.004272 
	C286.889130,258.003662 286.445282,258.003662 285.667816,258.002533 
	C284.889771,258.001343 284.445312,258.001282 283.731262,258.083893 
	C282.974457,258.444366 282.487244,258.722198 281.666626,259.000092 
	C280.889069,259.000488 280.444885,259.000854 279.620117,259.086853 
	C277.159271,259.448761 275.079041,259.725006 272.623962,260.000854 
	C271.499420,260.000458 270.749695,260.000488 269.680328,259.822021 
	C267.906708,259.429413 266.452728,259.215332 264.598907,259.001099 
	C263.132690,259.000824 262.066345,259.000671 260.729065,258.829193 
	C259.638611,258.438995 258.819061,258.220093 257.571228,258.000854 
	C255.429321,257.999542 253.715698,257.998535 251.868362,257.690765 
	C248.823029,255.589539 245.911392,253.795074 242.999878,252.000305 
	C243.000000,252.000000 242.999390,252.000610 242.809418,251.756592 
	C241.745483,251.009232 240.871521,250.505905 239.997559,250.002563 
	C239.997559,250.002563 240.000000,250.000000 239.814636,249.724670 
	C236.752838,246.299576 233.876419,243.149796 230.925812,239.682800 
	C230.234009,238.243927 229.616394,237.122269 228.900391,235.667786 
	C226.867783,230.889969 224.933578,226.444992 223.145401,221.768158 
	C223.194061,220.690872 223.096725,219.845444 222.999252,218.666779 
	C222.999023,217.889236 222.998901,217.444916 222.987183,216.649048 
	C222.650192,215.198334 222.324783,214.099167 221.999481,212.583344 
	C221.999466,210.777786 221.999359,209.388885 222.177826,207.680389 
	C222.570526,205.906967 222.784653,204.453186 222.998856,202.624466 
	C222.999100,201.499695 222.999268,200.749847 223.166077,199.772614 
	C223.554672,199.029846 223.776627,198.514481 223.998550,197.624039 
	C223.997589,196.498779 223.996658,195.748581 223.995743,194.665466 
	C223.995941,193.888641 223.996140,193.444733 224.071198,192.664978 
	C224.428802,191.217651 224.711548,190.106186 224.994293,188.994736 
M250.973679,251.489746 
	C253.464188,252.827957 255.826447,254.541977 258.466187,255.442932 
	C274.701538,260.984131 300.139374,253.186752 309.743713,239.006516 
	C324.276703,217.549515 321.642975,189.521942 301.666229,173.271210 
	C293.649506,166.749756 283.958923,162.408600 274.189423,162.598358 
	C257.027557,162.931686 242.708435,169.549408 232.001938,184.829697 
	C218.887451,203.546646 224.625916,240.708893 250.973679,251.489746 
z"/>
<path fill="#00BABD" opacity="1.000000" stroke="none" 
	d="
M313.326019,240.891907 
	C313.799194,238.825378 314.295349,236.474945 315.439911,234.500366 
	C325.032837,217.951431 324.888458,201.642410 315.193146,185.089569 
	C304.860596,167.448792 289.463593,159.307785 269.387573,160.097641 
	C252.616364,160.757477 239.126389,167.738434 230.165604,182.473495 
	C228.988190,184.409637 227.109039,185.919037 225.276520,187.812363 
	C226.204453,180.019821 231.622406,174.501282 237.383575,170.069916 
	C243.315155,165.507507 250.578262,162.676254 257.897034,158.922791 
	C259.023834,158.172455 259.512329,157.586868 260.000793,157.001282 
	C260.750580,157.001099 261.500397,157.000916 262.916260,157.168396 
	C265.055115,156.891312 266.527954,156.446579 268.000763,156.001831 
	C269.067230,156.001495 270.133728,156.001175 271.942444,156.182281 
	C279.123505,157.908600 285.562378,159.453506 292.001221,160.998413 
	C298.016541,164.922424 304.773651,168.083267 309.828125,172.995895 
	C314.421539,177.460419 317.163452,183.829926 320.981689,189.947479 
	C321.827484,191.023743 322.413147,191.512177 322.998779,192.000610 
	C322.999268,192.444778 322.999817,192.888962 323.015930,194.060745 
	C324.020203,197.192581 325.008881,199.596786 325.997559,202.000992 
	C325.997986,202.750854 325.998413,203.500717 325.998840,204.625519 
	C325.878784,207.771729 325.758759,210.542969 325.819214,213.657104 
	C325.999512,214.749817 325.999298,215.499619 325.702454,216.801483 
	C324.270966,220.236008 323.136108,223.118469 322.001221,226.000916 
	C319.217346,230.928024 316.433472,235.855133 313.326019,240.891907 
z"/>
<path fill="#00BABD" opacity="1.000000" stroke="none" 
	d="
M287.998871,258.004883 
	C294.961426,253.310760 301.932648,248.629379 308.878326,243.910416 
	C310.090759,243.086670 311.195648,242.104630 312.676147,241.098907 
	C309.845062,244.867874 306.688019,248.733627 302.940491,252.892670 
	C300.899963,254.457169 299.449982,255.728378 298.000000,256.999603 
	C296.553070,257.614899 295.106171,258.230225 292.998901,258.949829 
	C290.891968,258.704376 289.445435,258.354645 287.998871,258.004883 
z"/>
<path fill="#00BABD" opacity="1.000000" stroke="none" 
	d="
M222.998779,217.000610 
	C222.998901,217.444916 222.999023,217.889236 222.853455,218.898651 
	C222.804977,220.309189 222.902176,221.154587 222.999390,222.000000 
	C224.933578,226.444992 226.867783,230.889969 228.525635,235.667664 
	C227.499710,236.000244 226.750168,236.000122 226.000610,236.000000 
	C225.389542,234.873489 224.778473,233.746979 223.962921,232.042374 
	C223.172684,230.975983 222.586914,230.487686 222.001144,229.999390 
	C222.000549,229.249771 221.999954,228.500168 221.919815,227.022308 
	C220.894089,224.529099 219.947922,222.764145 219.001755,220.999176 
	C219.001556,220.554916 219.001343,220.110641 219.167465,219.105713 
	C219.556274,218.029831 219.778748,217.514603 220.375916,216.999527 
	C221.500000,216.999985 222.249390,217.000290 222.998779,217.000610 
z"/>
<path fill="#00B8BE" opacity="1.000000" stroke="none" 
	d="
M291.834625,160.692551 
	C285.562378,159.453506 279.123505,157.908600 272.342346,156.182220 
	C279.268463,154.267929 285.495087,157.206924 291.834625,160.692551 
z"/>
<path fill="#00BABD" opacity="1.000000" stroke="none" 
	d="
M261.000000,259.000519 
	C262.066345,259.000671 263.132690,259.000824 264.599213,259.375793 
	C265.000000,260.500000 265.000610,261.249390 264.731628,262.081879 
	C263.974701,262.443024 263.487366,262.721039 263.000000,262.999084 
	C261.933563,262.998840 260.867157,262.998627 259.279846,262.730438 
	C258.172241,261.975372 257.585510,261.488281 256.998779,261.001221 
	C256.179688,260.781708 255.360565,260.562164 254.074524,259.967529 
	C253.071716,259.061615 252.535858,258.530792 252.000000,258.000000 
	C252.000000,258.000000 252.002075,257.997559 252.002075,257.997559 
	C253.715698,257.998535 255.429321,257.999542 257.688782,258.252747 
	C259.156403,258.670166 260.078186,258.835358 261.000000,259.000519 
z"/>
<path fill="#00BABD" opacity="1.000000" stroke="none" 
	d="
M221.999237,208.000000 
	C221.999359,209.388885 221.999466,210.777786 221.749420,212.707886 
	C220.999710,213.499405 220.500168,213.749710 219.667465,213.999847 
	C218.890152,213.999390 218.445999,213.999084 218.001831,213.998779 
	C218.001602,211.298553 218.001373,208.598312 218.334579,205.449417 
	C219.112228,205.000580 219.556412,205.000412 220.182007,205.240112 
	C220.908691,206.319992 221.453964,207.159988 221.999237,208.000000 
z"/>
<path fill="#00BABD" opacity="1.000000" stroke="none" 
	d="
M231.000000,240.000000 
	C233.876419,243.149796 236.752838,246.299576 239.813675,249.725662 
	C235.508057,250.046677 233.096085,247.206909 231.096878,242.954865 
	C230.999802,241.500290 230.999893,240.750137 231.000000,240.000000 
z"/>
<path fill="#00BABD" opacity="1.000000" stroke="none" 
	d="
M242.999771,252.000610 
	C245.911392,253.795074 248.823029,255.589539 251.868362,257.690796 
	C252.002075,257.997559 252.000000,258.000000 251.666565,258.000092 
	C250.888550,258.000519 250.443970,258.000885 249.999390,258.001221 
	C248.534805,257.433044 247.070236,256.864899 245.187988,255.849426 
	C244.180145,254.268280 243.589966,253.134445 242.999771,252.000610 
z"/>
<path fill="#00BABD" opacity="1.000000" stroke="none" 
	d="
M280.000702,259.001221 
	C280.444885,259.000854 280.889069,259.000488 281.871460,259.088806 
	C282.940063,258.785400 283.470459,258.393311 284.000854,258.001221 
	C284.445312,258.001282 284.889771,258.001343 285.611511,258.332886 
	C284.925568,260.109039 283.962341,261.553711 282.999146,262.998352 
	C282.554993,262.998749 282.110870,262.999146 281.128510,262.910706 
	C280.059784,263.213776 279.529297,263.605682 278.998779,263.997559 
	C278.554718,263.998138 278.110687,263.998718 277.333313,263.748718 
	C277.000000,263.331299 277.000000,263.164429 277.136108,262.712158 
	C278.181671,261.284912 279.091187,260.143066 280.000702,259.001221 
z"/>
<path fill="#00B8BF" opacity="1.000000" stroke="none" 
	d="
M223.996338,193.000824 
	C223.996140,193.444733 223.995941,193.888641 223.662048,194.729553 
	C221.886047,196.417953 220.443741,197.709366 219.001434,199.000763 
	C220.122955,195.767548 221.244476,192.534332 222.625778,189.449554 
	C223.255814,190.732254 223.626068,191.866547 223.996338,193.000824 
z"/>
<path fill="#00BABD" opacity="1.000000" stroke="none" 
	d="
M219.001221,199.375656 
	C220.443741,197.709366 221.886047,196.417953 223.662048,195.062469 
	C223.996658,195.748581 223.997589,196.498779 223.783478,197.708191 
	C223.378784,198.778290 223.189102,199.389145 222.999435,200.000000 
	C222.999268,200.749847 222.999100,201.499695 222.624176,202.624603 
	C221.500015,202.999985 220.750610,203.000290 219.843994,202.824463 
	C219.470337,202.419205 219.241623,202.203110 219.000610,202.000000 
	C219.000748,201.250183 219.000885,200.500366 219.001221,199.375656 
z"/>
<path fill="#00B8BF" opacity="1.000000" stroke="none" 
	d="
M283.376190,262.913513 
	C283.962341,261.553711 284.925568,260.109039 285.945068,258.334045 
	C286.445282,258.003662 286.889130,258.003662 287.665955,258.004272 
	C289.445435,258.354645 290.891968,258.704376 292.669678,259.027679 
	C289.918274,260.277039 286.835754,261.552826 283.376190,262.913513 
z"/>
<path fill="#00B8BF" opacity="1.000000" stroke="none" 
	d="
M230.925812,239.682800 
	C230.999893,240.750137 230.999802,241.500290 230.999542,242.625519 
	C229.396973,240.888275 227.794571,238.775955 226.096375,236.331818 
	C226.750168,236.000122 227.499710,236.000244 228.624023,236.000488 
	C229.616394,237.122269 230.234009,238.243927 230.925812,239.682800 
z"/>
<path fill="#00BABD" opacity="1.000000" stroke="none" 
	d="
M270.000000,260.000519 
	C270.749695,260.000488 271.499420,260.000458 272.624207,260.375366 
	C272.999542,261.499390 272.999756,262.248474 273.000000,263.247864 
	C273.000000,263.665039 273.000000,263.831909 273.000000,263.998779 
	C271.610962,263.998901 270.221954,263.999054 268.416809,263.665283 
	C268.000458,262.887177 268.000214,262.442963 268.196228,261.795227 
	C268.928314,261.061279 269.464172,260.530884 270.000000,260.000519 
z"/>
<path fill="#00B8BE" opacity="1.000000" stroke="none" 
	d="
M322.315125,225.853516 
	C323.136108,223.118469 324.270966,220.236008 325.702332,217.176392 
	C324.875519,219.901535 323.752258,222.803818 322.315125,225.853516 
z"/>
<path fill="#00B8BE" opacity="1.000000" stroke="none" 
	d="
M325.957886,201.613953 
	C325.008881,199.596786 324.020203,197.192581 323.016357,194.393875 
	C323.973541,196.408569 324.945862,198.817749 325.957886,201.613953 
z"/>
<path fill="#00B8BF" opacity="1.000000" stroke="none" 
	d="
M242.999878,252.000305 
	C243.589966,253.134445 244.180145,254.268280 244.885284,255.700760 
	C243.402267,254.879883 241.804306,253.760361 240.478104,252.320435 
	C241.499710,252.000214 242.249542,252.000412 242.999390,252.000610 
	C242.999390,252.000610 243.000000,252.000000 242.999878,252.000305 
z"/>
<path fill="#00B8BF" opacity="1.000000" stroke="none" 
	d="
M298.336639,256.917847 
	C299.449982,255.728378 300.899963,254.457169 302.675049,253.093277 
	C301.557831,254.279099 300.115540,255.557587 298.336639,256.917847 
z"/>
<path fill="#00B8BF" opacity="1.000000" stroke="none" 
	d="
M219.037445,221.364639 
	C219.947922,222.764145 220.894089,224.529099 221.919525,226.647522 
	C221.023560,225.244019 220.048340,223.487061 219.037445,221.364639 
z"/>
<path fill="#00B8BF" opacity="1.000000" stroke="none" 
	d="
M268.000000,261.998779 
	C268.000214,262.442963 268.000458,262.887177 268.000977,263.664459 
	C266.547241,263.783783 265.093262,263.570007 263.319641,263.177673 
	C263.487366,262.721039 263.974701,262.443024 265.106445,262.081970 
	C266.500580,261.998901 267.250275,261.998840 268.000000,261.998779 
z"/>
<path fill="#00B8BE" opacity="1.000000" stroke="none" 
	d="
M267.625610,156.004852 
	C266.527954,156.446579 265.055115,156.891312 263.291138,157.168335 
	C264.416809,156.669708 265.833618,156.338791 267.625610,156.004852 
z"/>
<path fill="#00B8BF" opacity="1.000000" stroke="none" 
	d="
M218.004852,214.374023 
	C218.445999,213.999084 218.890152,213.999390 219.667465,214.374786 
	C220.000809,215.499710 220.001007,216.249542 220.001221,216.999390 
	C219.778748,217.514603 219.556274,218.029831 219.167236,218.772522 
	C218.669754,217.583084 218.338821,216.166168 218.004852,214.374023 
z"/>
<path fill="#00BABD" opacity="1.000000" stroke="none" 
	d="
M224.071198,192.664978 
	C223.626068,191.866547 223.255814,190.732254 222.942474,189.298676 
	C223.442764,188.998489 223.886124,188.997589 224.661896,188.995728 
	C224.711548,190.106186 224.428802,191.217651 224.071198,192.664978 
z"/>
<path fill="#00B8BF" opacity="1.000000" stroke="none" 
	d="
M273.277557,264.104675 
	C273.000000,263.831909 273.000000,263.665039 273.399994,263.248322 
	C274.866669,262.998169 275.933319,262.997864 277.000000,262.997559 
	C277.000000,263.164429 277.000000,263.331299 277.000031,263.748474 
	C275.851746,264.069366 274.703430,264.139984 273.277557,264.104675 
z"/>
<path fill="#00B8BF" opacity="1.000000" stroke="none" 
	d="
M250.167160,258.293030 
	C250.443970,258.000885 250.888550,258.000519 251.666565,258.000092 
	C252.535858,258.530792 253.071716,259.061615 253.803741,259.796204 
	C252.778259,259.528290 251.556595,259.056580 250.167160,258.293030 
z"/>
<path fill="#00B8BF" opacity="1.000000" stroke="none" 
	d="
M218.829224,202.270935 
	C219.241623,202.203110 219.470337,202.419205 219.843811,203.157730 
	C220.000763,204.111511 220.000687,204.555878 220.000610,205.000244 
	C219.556412,205.000412 219.112228,205.000580 218.334930,205.000977 
	C218.220490,204.181442 218.439163,203.361649 218.829224,202.270935 
z"/>
<path fill="#00BABD" opacity="1.000000" stroke="none" 
	d="
M242.809418,251.756592 
	C242.249542,252.000412 241.499710,252.000214 240.374939,252.000000 
	C239.999435,251.556107 239.998856,251.112198 239.997925,250.335434 
	C240.871521,250.505905 241.745483,251.009232 242.809418,251.756592 
z"/>
<path fill="#00B8BF" opacity="1.000000" stroke="none" 
	d="
M279.268494,263.915161 
	C279.529297,263.605682 280.059784,263.213776 280.795166,262.910553 
	C280.512726,263.277039 280.025482,263.554901 279.268494,263.915161 
z"/>
<path fill="#00B8BE" opacity="1.000000" stroke="none" 
	d="
M259.732574,157.121597 
	C259.512329,157.586868 259.023834,158.172455 258.267059,158.878326 
	C258.487305,158.413040 258.975830,157.827484 259.732574,157.121597 
z"/>
<path fill="#00B8BF" opacity="1.000000" stroke="none" 
	d="
M257.119843,261.269104 
	C257.585510,261.488281 258.172241,261.975372 258.879944,262.730316 
	C258.414276,262.511108 257.827576,262.024017 257.119843,261.269104 
z"/>
<path fill="#00B8BE" opacity="1.000000" stroke="none" 
	d="
M322.878418,191.732422 
	C322.413147,191.512177 321.827484,191.023743 321.121521,190.267029 
	C321.586823,190.487259 322.172455,190.975739 322.878418,191.732422 
z"/>
<path fill="#00B8BF" opacity="1.000000" stroke="none" 
	d="
M222.121552,230.267593 
	C222.586914,230.487686 223.172684,230.975983 223.878922,231.732452 
	C223.413589,231.512329 222.827774,231.024063 222.121552,230.267593 
z"/>
<path fill="#00C3B7" opacity="1.000000" stroke="none" 
	d="
M250.638153,251.322479 
	C224.625916,240.708893 218.887451,203.546646 232.001938,184.829697 
	C242.708435,169.549408 257.027557,162.931686 274.189423,162.598358 
	C283.958923,162.408600 293.649506,166.749756 301.666229,173.271210 
	C321.642975,189.521942 324.276703,217.549515 309.743713,239.006516 
	C300.139374,253.186752 274.701538,260.984131 258.466187,255.442932 
	C255.826447,254.541977 253.464188,252.827957 250.638153,251.322479 
M313.970459,214.219406 
	C314.288300,205.138855 313.813507,196.128464 308.945068,188.136230 
	C298.732605,171.371170 276.042145,163.872055 257.298492,169.746384 
	C238.725830,175.567123 224.928375,201.833237 230.957993,220.587814 
	C236.637527,238.253510 247.069336,248.547256 265.060120,251.723633 
	C281.097076,254.555069 294.046661,248.535736 304.830780,237.354645 
	C310.639465,231.332153 313.305115,223.534668 313.970459,214.219406 
z"/>
<path fill="#00BCBC" opacity="1.000000" stroke="none" 
	d="
M277.136108,262.712158 
	C275.933319,262.997864 274.866669,262.998169 273.399994,262.998016 
	C272.999756,262.248474 272.999542,261.499390 272.999054,260.375793 
	C275.079041,259.725006 277.159271,259.448761 279.620117,259.086853 
	C279.091187,260.143066 278.181671,261.284912 277.136108,262.712158 
z"/>
<path fill="#00BCBC" opacity="1.000000" stroke="none" 
	d="
M268.196228,261.795227 
	C267.250275,261.998840 266.500580,261.998901 265.376038,261.998871 
	C265.000610,261.249390 265.000000,260.500000 264.999084,259.375916 
	C266.452728,259.215332 267.906708,259.429413 269.680328,259.822021 
	C269.464172,260.530884 268.928314,261.061279 268.196228,261.795227 
z"/>
<path fill="#00BCBC" opacity="1.000000" stroke="none" 
	d="
M220.182007,205.240112 
	C220.000687,204.555878 220.000763,204.111511 220.001038,203.333862 
	C220.750610,203.000290 221.500015,202.999985 222.624084,202.999527 
	C222.784653,204.453186 222.570526,205.906967 222.177826,207.680389 
	C221.453964,207.159988 220.908691,206.319992 220.182007,205.240112 
z"/>
<path fill="#00BCBC" opacity="1.000000" stroke="none" 
	d="
M220.375916,216.999527 
	C220.001007,216.249542 220.000809,215.499710 220.000610,214.374939 
	C220.500168,213.749710 220.999710,213.499405 221.749313,213.124542 
	C222.324783,214.099167 222.650192,215.198334 222.987183,216.649048 
	C222.249390,217.000290 221.500000,216.999985 220.375916,216.999527 
z"/>
<path fill="#00BCBC" opacity="1.000000" stroke="none" 
	d="
M260.729065,258.829193 
	C260.078186,258.835358 259.156403,258.670166 258.117065,258.253113 
	C258.819061,258.220093 259.638611,258.438995 260.729065,258.829193 
z"/>
<path fill="#00BCBC" opacity="1.000000" stroke="none" 
	d="
M223.145401,221.768158 
	C222.902176,221.154587 222.804977,220.309189 222.853577,219.231888 
	C223.096725,219.845444 223.194061,220.690872 223.145401,221.768158 
z"/>
<path fill="#00BCBC" opacity="1.000000" stroke="none" 
	d="
M223.166077,199.772614 
	C223.189102,199.389145 223.378784,198.778290 223.783508,198.083282 
	C223.776627,198.514481 223.554672,199.029846 223.166077,199.772614 
z"/>
<path fill="#00BCBC" opacity="1.000000" stroke="none" 
	d="
M283.731262,258.083893 
	C283.470459,258.393311 282.940063,258.785400 282.204834,259.088745 
	C282.487244,258.722198 282.974457,258.444366 283.731262,258.083893 
z"/>
<path fill="#00CAB1" opacity="1.000000" stroke="none" 
	d="
M313.947937,214.679321 
	C313.305115,223.534668 310.639465,231.332153 304.830780,237.354645 
	C294.046661,248.535736 281.097076,254.555069 265.060120,251.723633 
	C247.069336,248.547256 236.637527,238.253510 230.957993,220.587814 
	C224.928375,201.833237 238.725830,175.567123 257.298492,169.746384 
	C276.042145,163.872055 298.732605,171.371170 308.945068,188.136230 
	C313.813507,196.128464 314.288300,205.138855 313.947937,214.679321 
M236.081192,220.340683 
	C239.062408,233.071121 248.133240,240.882156 259.246826,245.428162 
	C275.448120,252.055298 294.513367,244.966873 303.808563,230.095779 
	C311.610413,217.613922 312.358582,204.568878 304.782623,191.772507 
	C297.589905,179.623505 286.380005,172.800400 272.423615,172.162415 
	C248.422699,171.065277 227.679413,198.409393 236.081192,220.340683 
z"/>
<path fill="#00D1AC" opacity="1.000000" stroke="none" 
	d="
M235.984726,219.945465 
	C227.679413,198.409393 248.422699,171.065277 272.423615,172.162415 
	C286.380005,172.800400 297.589905,179.623505 304.782623,191.772507 
	C312.358582,204.568878 311.610413,217.613922 303.808563,230.095779 
	C294.513367,244.966873 275.448120,252.055298 259.246826,245.428162 
	C248.133240,240.882156 239.062408,233.071121 235.984726,219.945465 
M252.031891,184.485001 
	C240.153488,195.167328 236.488602,207.409012 242.351212,222.651520 
	C245.655487,231.242493 252.204224,237.964844 260.916870,240.402679 
	C283.480713,246.716141 300.502441,234.921402 304.302002,213.666199 
	C306.197937,203.060135 302.195984,192.631210 293.782257,185.917297 
	C280.970398,175.693817 267.783417,173.444794 252.031891,184.485001 
z"/>
<path fill="#00D7A7" opacity="1.000000" stroke="none" 
	d="
M252.315521,184.257874 
	C267.783417,173.444794 280.970398,175.693817 293.782257,185.917297 
	C302.195984,192.631210 306.197937,203.060135 304.302002,213.666199 
	C300.502441,234.921402 283.480713,246.716141 260.916870,240.402679 
	C252.204224,237.964844 245.655487,231.242493 242.351212,222.651520 
	C236.488602,207.409012 240.153488,195.167328 252.315521,184.257874 
M245.292328,205.839066 
	C242.737839,213.370422 246.742249,219.580582 249.931946,225.598480 
	C254.115738,233.491852 266.194336,238.687592 275.415070,236.672180 
	C285.793304,234.403778 295.155609,230.572861 297.770477,218.277420 
	C300.312561,206.324112 298.213928,195.799973 288.382019,188.236176 
	C279.097260,181.093323 268.773346,181.265717 258.230957,186.301620 
	C250.156387,190.158691 248.142700,197.737564 245.292328,205.839066 
z"/>
<path fill="#00DEA1" opacity="1.000000" stroke="none" 
	d="
M245.400879,205.457748 
	C248.142700,197.737564 250.156387,190.158691 258.230957,186.301620 
	C268.773346,181.265717 279.097260,181.093323 288.382019,188.236176 
	C298.213928,195.799973 300.312561,206.324112 297.770477,218.277420 
	C295.155609,230.572861 285.793304,234.403778 275.415070,236.672180 
	C266.194336,238.687592 254.115738,233.491852 249.931946,225.598480 
	C246.742249,219.580582 242.737839,213.370422 245.400879,205.457748 
M253.969254,197.556046 
	C253.021042,199.311813 251.923172,201.004288 251.149246,202.833786 
	C246.578613,213.638184 254.817810,229.812820 266.179871,231.772308 
	C275.730316,233.419388 284.571960,230.862259 290.095459,222.811554 
	C295.333984,215.176208 295.421051,207.288437 290.302856,198.182922 
	C282.297668,183.941299 261.150513,184.629074 253.969254,197.556046 
z"/>
<path fill="#00E59C" opacity="1.000000" stroke="none" 
	d="
M254.172852,197.252472 
	C261.150513,184.629074 282.297668,183.941299 290.302856,198.182922 
	C295.421051,207.288437 295.333984,215.176208 290.095459,222.811554 
	C284.571960,230.862259 275.730316,233.419388 266.179871,231.772308 
	C254.817810,229.812820 246.578613,213.638184 251.149246,202.833786 
	C251.923172,201.004288 253.021042,199.311813 254.172852,197.252472 
M270.772339,193.026138 
	C262.932800,194.082443 254.603760,202.660980 255.166824,209.099106 
	C256.075531,219.489014 264.192719,227.359436 273.582184,226.954575 
	C280.407745,226.660263 289.182068,216.955612 288.973358,209.931442 
	C288.711884,201.131744 280.523895,193.142227 270.772339,193.026138 
z"/>
<path fill="#00ED96" opacity="1.000000" stroke="none" 
	d="
M271.202209,193.018341 
	C280.523895,193.142227 288.711884,201.131744 288.973358,209.931442 
	C289.182068,216.955612 280.407745,226.660263 273.582184,226.954575 
	C264.192719,227.359436 256.075531,219.489014 255.166824,209.099106 
	C254.603760,202.660980 262.932800,194.082443 271.202209,193.018341 
M281.286316,212.553238 
	C282.591034,205.698349 280.502716,202.166245 274.233734,200.624664 
	C269.371704,199.429031 263.682251,202.321899 262.453369,206.614517 
	C261.116058,211.285690 264.014893,217.310043 268.380493,218.932373 
	C274.548401,221.224503 278.225494,219.590775 281.286316,212.553238 
z"/>
<path fill="#00F68F" opacity="1.000000" stroke="none" 
	d="
M281.165466,212.929535 
	C278.225494,219.590775 274.548401,221.224503 268.380493,218.932373 
	C264.014893,217.310043 261.116058,211.285690 262.453369,206.614517 
	C263.682251,202.321899 269.371704,199.429031 274.233734,200.624664 
	C280.502716,202.166245 282.591034,205.698349 281.165466,212.929535 
z"/>
</svg>