<svg version="1.1" id="Layer_1" xmlns="http://www.w3.org/2000/svg" xmlns:xlink="http://www.w3.org/1999/xlink" x="0px" y="0px"
	 width="100%" viewBox="0 0 537 417" enable-background="new 0 0 537 417" xml:space="preserve">
<path fill="#1A1A1A" opacity="1.000000" stroke="none" 
	d="
M326.000000,418.000000 
	C217.333328,418.000000 109.166664,418.000000 1.000000,418.000000 
	C1.000000,279.000000 1.000000,140.000000 1.000000,1.000000 
	C180.000000,1.000000 359.000000,1.000000 538.000000,1.000000 
	C538.000000,140.000000 538.000000,279.000000 538.000000,418.000000 
	C467.500000,418.000000 397.000000,418.000000 326.000000,418.000000 
M231.950348,396.427338 
	C233.303574,396.783081 234.656815,397.138794 236.193192,398.141022 
	C237.445801,401.113647 238.905365,400.178558 241.243866,398.279572 
	C245.180344,398.794189 249.116821,399.308807 253.405121,400.013428 
	C253.931152,399.995514 254.457169,399.977631 255.645248,400.159851 
	C256.762207,400.401093 257.879181,400.642303 259.254456,401.343597 
	C260.169220,401.257874 261.083984,401.172150 262.900940,400.966553 
	C270.934387,401.004791 278.967865,401.043060 287.293732,401.510254 
	C288.197601,401.292236 289.101501,401.074219 290.743103,400.535706 
	C292.075043,400.454132 293.406952,400.372559 295.181946,400.667542 
	C296.121033,400.459961 297.060089,400.252380 298.779907,399.736542 
	C310.093262,397.241455 321.406616,394.746338 333.205811,392.610168 
	C334.061401,392.165985 334.916962,391.721832 336.362396,390.905304 
	C342.504883,388.457642 348.647339,386.009979 355.276276,383.870941 
	C356.184113,383.280579 357.091949,382.690247 358.512207,381.614929 
	C361.759094,380.016632 365.005981,378.418304 369.015411,376.733459 
	C369.969635,376.030212 370.923859,375.326965 372.328827,374.155212 
	C374.716919,372.696136 377.105042,371.237030 380.153748,369.995544 
	C384.011658,370.879333 385.172119,368.441650 386.203033,364.896393 
	C388.188293,363.491394 390.173584,362.086426 392.899719,360.706818 
	C393.778473,359.726288 394.657196,358.745728 395.879486,357.318115 
	C396.640594,356.783325 397.401703,356.248535 398.968475,355.638763 
	C399.926300,354.568665 400.884125,353.498566 402.169586,351.890869 
	C416.251160,338.620636 428.817749,324.137329 438.542908,306.524323 
	C444.131531,294.282135 449.720154,282.039978 455.934357,269.559357 
	C456.102417,268.294189 456.270477,267.028992 456.565674,265.009277 
	C457.025726,263.000946 457.485809,260.992645 458.204254,258.919617 
	C458.204254,258.919617 458.461517,258.850342 459.064270,258.581299 
	C459.180695,257.305603 459.297089,256.029938 459.427246,254.049713 
	C459.782990,252.696457 460.138733,251.343201 461.140991,249.806793 
	C464.113953,248.554108 463.178253,247.094452 461.279480,244.755966 
	C461.794067,240.819534 462.308685,236.883102 463.013336,232.594864 
	C462.995422,232.068863 462.977509,231.542847 463.159760,230.354828 
	C463.400970,229.237854 463.642181,228.120865 464.343475,226.745544 
	C464.257751,225.830780 464.172028,224.916031 463.966400,223.099060 
	C464.004669,215.065628 464.042938,207.032181 464.510162,198.706360 
	C464.292114,197.802475 464.074097,196.898590 463.535461,195.256958 
	C463.453949,193.924988 463.372437,192.593018 463.667480,190.818008 
	C463.459869,189.878937 463.252258,188.939880 462.736328,187.220108 
	C460.241272,175.906738 457.746216,164.593369 455.610138,152.794128 
	C455.165955,151.938599 454.721771,151.083069 453.905212,149.637726 
	C451.457520,143.495239 449.009827,137.352753 446.870728,130.723846 
	C446.280396,129.815948 445.690063,128.908051 444.614716,127.487778 
	C443.016144,124.241020 441.417572,120.994263 439.732880,116.984863 
	C439.029663,116.030647 438.326416,115.076424 437.156403,113.673409 
	C435.727814,111.316200 434.299225,108.958984 432.840393,105.800201 
	C431.814636,104.562996 430.788879,103.325790 429.247681,101.684158 
	C427.393921,99.069748 425.540161,96.455338 423.688446,93.020508 
	C422.396118,91.703873 421.103790,90.387230 419.238586,88.743011 
	C404.973572,72.550049 389.083221,58.315765 369.524353,47.457111 
	C357.282166,41.868481 345.039978,36.279846 332.559387,30.065599 
	C331.294220,29.897570 330.029053,29.729542 328.009338,29.434341 
	C326.000946,28.974493 323.992523,28.514645 321.919128,27.796425 
	C321.919128,27.796425 321.849976,27.539127 321.581085,26.936213 
	C320.305450,26.819843 319.029846,26.703476 317.049622,26.573807 
	C315.696289,26.218033 314.342926,25.862259 312.806610,24.859993 
	C311.554718,21.886614 310.094879,22.821218 307.755890,24.720390 
	C303.819397,24.206001 299.882874,23.691612 295.594604,22.987402 
	C295.068695,23.005243 294.542786,23.023085 293.354950,22.840307 
	C292.237915,22.599049 291.120880,22.357792 289.745544,21.656422 
	C288.830780,21.742138 287.915985,21.827852 286.091797,22.033173 
	C278.060760,21.995003 270.029724,21.956833 261.706268,21.489750 
	C260.802399,21.707767 259.898529,21.925783 258.256897,22.464333 
	C256.924957,22.545908 255.593018,22.627481 253.818054,22.332483 
	C252.878983,22.540054 251.939896,22.747627 250.220093,23.263491 
	C238.906738,25.758589 227.593384,28.253689 215.794144,30.389820 
	C214.938599,30.833992 214.083038,31.278166 212.637680,32.094688 
	C206.495193,34.542358 200.352707,36.990028 193.723770,39.129066 
	C192.815903,39.719414 191.908035,40.309757 190.487762,41.385101 
	C187.240967,42.983681 183.994186,44.582260 179.984787,46.267006 
	C179.030594,46.970203 178.076401,47.673401 176.673431,48.843414 
	C174.316162,50.272072 171.958878,51.700729 168.800064,53.159615 
	C167.562881,54.185341 166.325714,55.211067 164.684067,56.752224 
	C162.069702,58.605991 159.455338,60.459755 156.020569,62.311546 
	C154.703888,63.603859 153.387222,64.896172 151.742920,66.761292 
	C135.550568,81.026840 121.314751,96.915947 110.457001,116.475525 
	C104.868408,128.717743 99.279816,140.959961 93.065613,153.440567 
	C92.897575,154.705765 92.729546,155.970947 92.434334,157.990692 
	C91.974472,159.999084 91.514618,162.007492 90.796417,164.080826 
	C90.796417,164.080826 90.539131,164.149902 89.936241,164.418884 
	C89.819862,165.694519 89.703476,166.970139 89.573776,168.950394 
	C89.217987,170.303772 88.862198,171.657135 87.859879,173.193451 
	C84.886017,174.445648 85.821846,175.905533 87.720818,178.244370 
	C87.206383,182.180771 86.691940,186.117188 85.987473,190.405273 
	C86.005379,190.931168 86.023285,191.457077 85.840683,192.644928 
	C85.599457,193.761993 85.358231,194.879044 84.656792,196.254410 
	C84.742500,197.169174 84.828209,198.083939 85.033943,199.900925 
	C84.995636,207.934357 84.957329,215.967804 84.490044,224.293625 
	C84.708122,225.197525 84.926193,226.101410 85.464844,227.743027 
	C85.546341,229.075027 85.627838,230.407043 85.332726,232.182053 
	C85.540344,233.121094 85.747963,234.060135 86.264038,235.779816 
	C88.759071,247.093216 91.254097,258.406616 93.390129,270.205841 
	C93.834290,271.061340 94.278450,271.916870 95.095116,273.362122 
	C97.542862,279.504639 99.990608,285.647186 102.129547,292.276093 
	C102.719849,293.183990 103.310150,294.091888 104.385620,295.512024 
	C105.984154,298.758728 107.582680,302.005463 109.267281,306.014893 
	C109.970581,306.969147 110.673874,307.923401 111.843933,309.326447 
	C113.272469,311.683594 114.700996,314.040741 116.159706,317.199554 
	C117.185562,318.436798 118.211418,319.674072 119.752724,321.315765 
	C121.606407,323.930084 123.460098,326.544373 125.311737,329.979187 
	C126.604149,331.295898 127.896553,332.612610 129.761780,334.256866 
	C130.983795,335.612396 132.196426,336.976562 133.429291,338.322144 
	C148.098801,354.333038 164.599060,368.009064 184.511566,378.436798 
	C195.076050,383.059357 205.640533,387.681946 216.442459,392.930634 
	C217.707047,393.098633 218.971634,393.266632 221.007401,393.564178 
	C223.026459,393.945099 225.045502,394.326019 227.118820,395.068268 
	C227.118820,395.068268 227.144653,395.432709 227.412521,396.041779 
	C228.690292,396.165710 229.968048,396.289642 231.950348,396.427338 
z"/>
<path fill="#06CB6F" opacity="1.000000" stroke="none" 
	d="
M85.709343,231.739044 
	C85.627838,230.407043 85.546341,229.075027 85.360565,226.996307 
	C85.143860,225.500153 85.031441,224.750687 84.919022,224.001236 
	C84.957329,215.967804 84.995636,207.934357 85.088715,199.084839 
	C85.134659,197.511215 85.125832,196.753662 85.117004,195.996109 
	C85.358231,194.879044 85.599457,193.761993 86.031906,192.132812 
	C86.207916,191.098343 86.192703,190.575958 86.177498,190.053589 
	C86.691940,186.117188 87.206383,182.180771 87.780930,177.861847 
	C87.841042,177.479340 88.048340,177.540039 88.220490,177.694641 
	C88.882866,178.222931 89.373100,178.596634 89.874130,179.338196 
	C89.584435,181.139236 89.283951,182.572433 88.887421,184.185730 
	C88.790184,184.892273 88.788986,185.418701 88.800247,186.382614 
	C82.506554,239.330902 95.573570,286.502625 128.034241,328.226349 
	C143.744476,348.419708 163.458359,363.973907 185.256378,376.907593 
	C184.672073,377.397949 184.342209,377.682953 184.012344,377.967926 
	C164.599060,368.009064 148.098801,354.333038 133.429291,338.322144 
	C132.196426,336.976562 130.983795,335.612396 129.353638,333.774048 
	C127.734940,331.913727 126.524361,330.536224 125.313782,329.158691 
	C123.460098,326.544373 121.606407,323.930084 119.371407,320.794769 
	C118.036568,318.981812 117.083046,317.689850 116.129524,316.397888 
	C114.700996,314.040741 113.272469,311.683594 111.536743,308.751160 
	C110.546768,307.201263 109.863991,306.226715 109.181213,305.252167 
	C107.582680,302.005463 105.984154,298.758728 104.103897,294.960876 
	C103.360901,293.536377 102.899628,292.663025 102.438354,291.789703 
	C99.990608,285.647186 97.542862,279.504639 94.889816,272.743530 
	C94.372719,271.323303 94.060921,270.521667 93.749123,269.720001 
	C91.254097,258.406616 88.759071,247.093216 86.169044,235.063858 
	C85.952484,233.478287 85.830910,232.608658 85.709343,231.739044 
z"/>
<path fill="#06CB6F" opacity="1.000000" stroke="none" 
	d="
M462.823303,232.946671 
	C462.308685,236.883102 461.794067,240.819534 461.219086,245.139160 
	C461.158691,245.522369 460.951263,245.462143 460.779175,245.307220 
	C460.116669,244.778030 459.626282,244.403748 459.125275,243.661652 
	C459.415039,241.860748 459.715393,240.427673 460.112000,238.814514 
	C460.209259,238.107880 460.210297,237.581345 460.199066,236.617340 
	C466.157196,187.283966 455.030396,142.648605 426.684509,102.364090 
	C411.223450,80.391174 391.397827,63.139194 368.776123,49.041145 
	C369.362610,48.515343 369.692383,48.208912 370.022156,47.902481 
	C389.083221,58.315765 404.973572,72.550049 419.646729,89.225815 
	C421.265381,91.086060 422.475891,92.463501 423.686401,93.840927 
	C425.540161,96.455338 427.393921,99.069748 429.628967,102.205132 
	C430.963715,104.017990 431.917175,105.309883 432.870605,106.601776 
	C434.299225,108.958984 435.727814,111.316200 437.463623,114.248703 
	C438.453552,115.798500 439.136292,116.773003 439.819031,117.747505 
	C441.417572,120.994263 443.016144,124.241020 444.896423,128.039001 
	C445.639465,129.463577 446.100800,130.336929 446.562134,131.210266 
	C449.009827,137.352753 451.457520,143.495239 454.110504,150.256317 
	C454.627563,151.676620 454.939331,152.478317 455.251129,153.279999 
	C457.746216,164.593369 460.241272,175.906738 462.831299,187.936127 
	C463.047821,189.521774 463.169373,190.391418 463.290894,191.261047 
	C463.372437,192.593018 463.453949,193.924988 463.639832,196.003693 
	C463.856537,197.499847 463.968872,198.249298 464.081238,198.998749 
	C464.042938,207.032181 464.004669,215.065628 463.911621,223.915161 
	C463.865692,225.488800 463.874542,226.246353 463.883362,227.003891 
	C463.642181,228.120865 463.400970,229.237854 462.968506,230.866928 
	C462.792603,231.901581 462.807953,232.424118 462.823303,232.946671 
z"/>
<path fill="#06CB6F" opacity="1.000000" stroke="none" 
	d="
M438.097565,307.022186 
	C428.817749,324.137329 416.251160,338.620636 401.692139,352.325012 
	C400.197388,353.744019 399.180084,354.728851 398.162781,355.713745 
	C397.401703,356.248535 396.640594,356.783325 395.433655,357.704498 
	C394.044861,358.954407 393.101837,359.817902 392.158844,360.681427 
	C390.173584,362.086426 388.188293,363.491394 385.691040,365.282104 
	C383.283722,367.037842 381.388428,368.407867 379.493134,369.777924 
	C377.105042,371.237030 374.716919,372.696136 371.752563,374.463257 
	C370.201813,375.454224 369.227325,376.137085 368.252869,376.819977 
	C365.005981,378.418304 361.759094,380.016632 357.960938,381.896637 
	C356.536407,382.639648 355.663116,383.100983 354.789825,383.562317 
	C348.647339,386.009979 342.504883,388.457642 335.743774,391.110596 
	C334.323395,391.627686 333.521667,391.939453 332.719971,392.251221 
	C321.406616,394.746338 310.093262,397.241455 298.063904,399.831482 
	C296.478210,400.047974 295.608551,400.169464 294.738892,400.290985 
	C293.406952,400.372559 292.075043,400.454132 289.996399,400.640015 
	C288.500244,400.856659 287.750763,400.968994 287.001312,401.081329 
	C278.967865,401.043060 270.934387,401.004791 262.084839,400.911804 
	C260.511230,400.865875 259.753662,400.874725 258.996124,400.883545 
	C257.879181,400.642303 256.762207,400.401093 255.133118,399.968658 
	C254.098404,399.792786 253.575851,399.808105 253.053284,399.823425 
	C249.116821,399.308807 245.180344,398.794189 240.860504,398.219086 
	C240.477142,398.158600 240.537399,397.951141 240.692383,397.779053 
	C241.221786,397.116577 241.596207,396.626160 242.338425,396.125122 
	C244.139252,396.414886 245.572296,396.715271 247.185440,397.111847 
	C247.892166,397.209106 248.418777,397.210175 249.382843,397.198914 
	C298.905304,403.177826 343.678284,391.947662 384.043732,363.396149 
	C405.834259,347.983154 422.951813,328.251404 436.958710,305.776184 
	C437.484589,306.362671 437.791077,306.692413 438.097565,307.022186 
z"/>
<path fill="#06CB6F" opacity="1.000000" stroke="none" 
	d="
M110.902405,115.977814 
	C121.314751,96.915947 135.550568,81.026840 152.225754,66.353127 
	C154.086044,64.734482 155.463516,63.523998 156.840973,62.313519 
	C159.455338,60.459755 162.069702,58.605991 165.205048,56.370934 
	C167.017899,55.036221 168.309753,54.082802 169.601608,53.129387 
	C171.958878,51.700729 174.316162,50.272072 177.248718,48.536209 
	C178.798462,47.546288 179.772934,46.863567 180.747391,46.180847 
	C183.994186,44.582260 187.240967,42.983681 191.039001,41.103401 
	C192.463577,40.360363 193.336899,39.899029 194.210220,39.437695 
	C200.352707,36.990028 206.495193,34.542358 213.256287,31.889389 
	C214.676605,31.372322 215.478317,31.060556 216.280029,30.748787 
	C227.593384,28.253689 238.906738,25.758589 250.936127,23.168526 
	C252.521790,22.952059 253.391434,22.830559 254.261078,22.709057 
	C255.593018,22.627481 256.924957,22.545908 259.003601,22.360012 
	C260.499786,22.143349 261.249237,22.031008 261.998688,21.918665 
	C270.029724,21.956833 278.060760,21.995003 286.911499,22.088062 
	C288.488739,22.134148 289.246307,22.125341 290.003845,22.116535 
	C291.120880,22.357792 292.237915,22.599049 293.867096,23.031456 
	C294.901611,23.207476 295.424011,23.192350 295.946381,23.177223 
	C299.882874,23.691612 303.819397,24.206001 308.138855,24.780802 
	C308.521820,24.841213 308.461029,25.048632 308.306305,25.220753 
	C307.777618,25.883121 307.403687,26.373373 306.661865,26.874466 
	C304.860840,26.584784 303.427673,26.284258 301.814331,25.887812 
	C301.107758,25.790623 300.581329,25.789354 299.617432,25.800615 
	C250.284241,19.844311 205.648346,30.969263 165.363785,59.315796 
	C143.391144,74.777016 126.139290,94.602394 112.041260,117.223892 
	C111.515381,116.637367 111.208893,116.307594 110.902405,115.977814 
z"/>
<path fill="#05CF71" opacity="1.000000" stroke="none" 
	d="
M438.320251,306.773254 
	C437.791077,306.692413 437.484589,306.362671 437.057709,305.446411 
	C445.449463,290.469360 451.150726,274.913635 456.284607,258.982666 
	C457.059875,258.981598 457.502869,258.982971 457.945862,258.984314 
	C457.485809,260.992645 457.025726,263.000946 456.331116,265.697205 
	C455.833984,267.522675 455.571381,268.660217 455.308777,269.797791 
	C449.720154,282.039978 444.131531,294.282135 438.320251,306.773254 
z"/>
<path fill="#05CF71" opacity="1.000000" stroke="none" 
	d="
M369.773254,47.679794 
	C369.692383,48.208912 369.362610,48.515343 368.446350,48.942200 
	C353.469452,40.550278 337.913391,34.849987 321.982971,29.715076 
	C321.981781,28.940283 321.982971,28.497541 321.984131,28.054796 
	C323.992523,28.514645 326.000946,28.974493 328.697266,29.668863 
	C330.522705,30.165993 331.660248,30.428600 332.797791,30.691212 
	C345.039978,36.279846 357.282166,41.868481 369.773254,47.679794 
z"/>
<path fill="#05CF71" opacity="1.000000" stroke="none" 
	d="
M110.679703,116.226669 
	C111.208893,116.307594 111.515381,116.637367 111.942276,117.553619 
	C103.551842,132.531204 97.847229,148.085510 92.715073,164.017090 
	C91.940269,164.018250 91.497513,164.017075 91.054764,164.015884 
	C91.514618,162.007492 91.974472,159.999084 92.668854,157.302765 
	C93.166000,155.477295 93.428612,154.339737 93.691223,153.202194 
	C99.279816,140.959961 104.868408,128.717743 110.679703,116.226669 
z"/>
<path fill="#05D072" opacity="1.000000" stroke="none" 
	d="
M184.261963,378.202362 
	C184.342209,377.682953 184.672073,377.397949 185.595734,376.975037 
	C192.954910,379.894196 199.630188,383.175171 206.511322,385.944733 
	C213.225800,388.647186 220.150635,390.827087 226.986633,393.481964 
	C227.001328,394.055054 227.026123,394.381500 227.064560,394.706940 
	C225.045502,394.326019 223.026459,393.945099 220.311523,393.328064 
	C218.478775,392.829468 217.341888,392.567017 216.205002,392.304535 
	C205.640533,387.681946 195.076050,383.059357 184.261963,378.202362 
z"/>
<path fill="#06C96E" opacity="1.000000" stroke="none" 
	d="
M321.951630,27.925611 
	C321.982971,28.497541 321.981781,28.940283 321.571838,29.717525 
	C316.451935,28.989225 311.740814,27.926426 307.029724,26.863625 
	C307.403687,26.373373 307.777618,25.883121 308.766418,25.225822 
	C310.584015,25.208010 311.786804,25.357244 312.989594,25.506481 
	C314.342926,25.862259 315.696289,26.218033 317.720642,26.735834 
	C319.544464,27.111616 320.697205,27.325371 321.849976,27.539127 
	C321.849976,27.539127 321.919128,27.796425 321.951630,27.925611 
z"/>
<path fill="#06C96E" opacity="1.000000" stroke="none" 
	d="
M458.075073,258.951965 
	C457.502869,258.982971 457.059875,258.981598 456.282013,258.571503 
	C457.010040,253.451645 458.072937,248.740555 459.135864,244.029465 
	C459.626282,244.403748 460.116669,244.778030 460.774384,245.767303 
	C460.792603,247.584839 460.643555,248.787384 460.494507,249.989944 
	C460.138733,251.343201 459.782990,252.696457 459.265076,254.720764 
	C458.889099,256.544678 458.675293,257.697510 458.461517,258.850342 
	C458.461517,258.850342 458.204254,258.919617 458.075073,258.951965 
z"/>
<path fill="#06C96E" opacity="1.000000" stroke="none" 
	d="
M90.925591,164.048355 
	C91.497513,164.017075 91.940269,164.018250 92.717529,164.428238 
	C91.989143,169.548141 90.926239,174.259247 89.863342,178.970337 
	C89.373100,178.596634 88.882866,178.222931 88.225594,177.234512 
	C88.207840,175.416702 88.357124,174.213608 88.506409,173.010513 
	C88.862198,171.657135 89.217987,170.303772 89.735817,168.279327 
	C90.111618,166.455475 90.325378,165.302689 90.539139,164.149902 
	C90.539131,164.149902 90.796417,164.080826 90.925591,164.048355 
z"/>
<path fill="#06C96E" opacity="1.000000" stroke="none" 
	d="
M227.091690,394.887604 
	C227.026123,394.381500 227.001328,394.055054 227.302673,393.779236 
	C232.400345,394.599243 237.185501,395.367493 241.970642,396.135742 
	C241.596207,396.626160 241.221786,397.116577 240.232330,397.774323 
	C238.414871,397.792603 237.212463,397.643585 236.010040,397.494537 
	C234.656815,397.138794 233.303574,396.783081 231.277847,396.264587 
	C229.451782,395.878784 228.298218,395.655762 227.144653,395.432709 
	C227.144653,395.432709 227.118820,395.068268 227.091690,394.887604 
z"/>
<path fill="#1A1B1A" opacity="1.000000" stroke="none" 
	d="
M379.823425,369.886719 
	C381.388428,368.407867 383.283722,367.037842 385.504669,365.526642 
	C385.172119,368.441650 384.011658,370.879333 379.823425,369.886719 
z"/>
<path fill="#1A1B1A" opacity="1.000000" stroke="none" 
	d="
M156.430771,62.312531 
	C155.463516,63.523998 154.086044,64.734482 152.389557,66.066727 
	C153.387222,64.896172 154.703888,63.603859 156.430771,62.312531 
z"/>
<path fill="#1A1B1A" opacity="1.000000" stroke="none" 
	d="
M125.312759,329.568939 
	C126.524361,330.536224 127.734940,331.913727 129.067230,333.610291 
	C127.896553,332.612610 126.604149,331.295898 125.312759,329.568939 
z"/>
<path fill="#1A1B1A" opacity="1.000000" stroke="none" 
	d="
M423.687439,93.430725 
	C422.475891,92.463501 421.265381,91.086060 419.933167,89.389610 
	C421.103790,90.387230 422.396118,91.703873 423.687439,93.430725 
z"/>
<path fill="#1A1B1A" opacity="1.000000" stroke="none" 
	d="
M236.101624,397.817780 
	C237.212463,397.643585 238.414871,397.792603 240.077347,397.946411 
	C240.537399,397.951141 240.477142,398.158600 240.444321,398.261536 
	C238.905365,400.178558 237.445801,401.113647 236.101624,397.817780 
z"/>
<path fill="#1A1B1A" opacity="1.000000" stroke="none" 
	d="
M88.183136,173.101990 
	C88.357124,174.213608 88.207840,175.416702 88.053452,177.079926 
	C88.048340,177.540039 87.841042,177.479340 87.738403,177.445709 
	C85.821846,175.905533 84.886017,174.445648 88.183136,173.101990 
z"/>
<path fill="#1A1B1A" opacity="1.000000" stroke="none" 
	d="
M460.817749,249.898376 
	C460.643555,248.787384 460.792603,247.584839 460.946472,245.922211 
	C460.951263,245.462143 461.158691,245.522369 461.261536,245.555328 
	C463.178253,247.094452 464.113953,248.554108 460.817749,249.898376 
z"/>
<path fill="#1A1B1A" opacity="1.000000" stroke="none" 
	d="
M312.898102,25.183237 
	C311.786804,25.357244 310.584015,25.208010 308.921143,25.053703 
	C308.461029,25.048632 308.521820,24.841213 308.555023,24.738369 
	C310.094879,22.821218 311.554718,21.886614 312.898102,25.183237 
z"/>
<path fill="#1A1B1A" opacity="1.000000" stroke="none" 
	d="
M392.529297,360.694122 
	C393.101837,359.817902 394.044861,358.954407 395.261902,357.928040 
	C394.657196,358.745728 393.778473,359.726288 392.529297,360.694122 
z"/>
<path fill="#1A1B1A" opacity="1.000000" stroke="none" 
	d="
M455.621552,269.678589 
	C455.571381,268.660217 455.833984,267.522675 456.267548,266.074463 
	C456.270477,267.028992 456.102417,268.294189 455.621552,269.678589 
z"/>
<path fill="#1A1B1A" opacity="1.000000" stroke="none" 
	d="
M227.278595,395.737244 
	C228.298218,395.655762 229.451782,395.878784 230.925583,396.257690 
	C229.968048,396.289642 228.690292,396.165710 227.278595,395.737244 
z"/>
<path fill="#1A1B1A" opacity="1.000000" stroke="none" 
	d="
M458.762878,258.715820 
	C458.675293,257.697510 458.889099,256.544678 459.258179,255.073044 
	C459.297089,256.029938 459.180695,257.305603 458.762878,258.715820 
z"/>
<path fill="#1A1B1A" opacity="1.000000" stroke="none" 
	d="
M332.678589,30.378405 
	C331.660248,30.428600 330.522705,30.165993 329.074524,29.732449 
	C330.029053,29.729542 331.294220,29.897570 332.678589,30.378405 
z"/>
<path fill="#1A1B1A" opacity="1.000000" stroke="none" 
	d="
M116.144615,316.798706 
	C117.083046,317.689850 118.036568,318.981812 119.113678,320.592529 
	C118.211418,319.674072 117.185562,318.436798 116.144615,316.798706 
z"/>
<path fill="#1A1B1A" opacity="1.000000" stroke="none" 
	d="
M321.715515,27.237671 
	C320.697205,27.325371 319.544464,27.111616 318.072937,26.742485 
	C319.029846,26.703476 320.305450,26.819843 321.715515,27.237671 
z"/>
<path fill="#1A1B1A" opacity="1.000000" stroke="none" 
	d="
M169.200836,53.144501 
	C168.309753,54.082802 167.017899,55.036221 165.407288,56.113216 
	C166.325714,55.211067 167.562881,54.185341 169.200836,53.144501 
z"/>
<path fill="#1A1B1A" opacity="1.000000" stroke="none" 
	d="
M216.323730,392.617584 
	C217.341888,392.567017 218.478775,392.829468 219.925934,393.263306 
	C218.971634,393.266632 217.707047,393.098633 216.323730,392.617584 
z"/>
<path fill="#1A1B1A" opacity="1.000000" stroke="none" 
	d="
M432.855499,106.200989 
	C431.917175,105.309883 430.963715,104.017990 429.886688,102.407349 
	C430.788879,103.325790 431.814636,104.562996 432.855499,106.200989 
z"/>
<path fill="#1A1B1A" opacity="1.000000" stroke="none" 
	d="
M93.378418,153.321381 
	C93.428612,154.339737 93.166000,155.477295 92.732445,156.925491 
	C92.729546,155.970947 92.897575,154.705765 93.378418,153.321381 
z"/>
<path fill="#1A1B1A" opacity="1.000000" stroke="none" 
	d="
M90.237686,164.284393 
	C90.325378,165.302689 90.111618,166.455475 89.742477,167.927017 
	C89.703476,166.970139 89.819862,165.694519 90.237686,164.284393 
z"/>
<path fill="#1A1B1A" opacity="1.000000" stroke="none" 
	d="
M102.283951,292.032898 
	C102.899628,292.663025 103.360901,293.536377 103.861313,294.704742 
	C103.310150,294.091888 102.719849,293.183990 102.283951,292.032898 
z"/>
<path fill="#1A1B1A" opacity="1.000000" stroke="none" 
	d="
M193.966995,39.283379 
	C193.336899,39.899029 192.463577,40.360363 191.295212,40.860901 
	C191.908035,40.309757 192.815903,39.719414 193.966995,39.283379 
z"/>
<path fill="#1A1B1A" opacity="1.000000" stroke="none" 
	d="
M355.033051,383.716614 
	C355.663116,383.100983 356.536407,382.639648 357.704712,382.139099 
	C357.091949,382.690247 356.184113,383.280579 355.033051,383.716614 
z"/>
<path fill="#1A1B1A" opacity="1.000000" stroke="none" 
	d="
M446.716431,130.967072 
	C446.100800,130.336929 445.639465,129.463577 445.138947,128.295197 
	C445.690063,128.908051 446.280396,129.815948 446.716431,130.967072 
z"/>
<path fill="#1A1B1A" opacity="1.000000" stroke="none" 
	d="
M259.125305,401.113586 
	C259.753662,400.874725 260.511230,400.865875 261.633759,400.971741 
	C261.083984,401.172150 260.169220,401.257874 259.125305,401.113586 
z"/>
<path fill="#1A1B1A" opacity="1.000000" stroke="none" 
	d="
M287.147522,401.295776 
	C287.750763,400.968994 288.500244,400.856659 289.627533,400.800262 
	C289.101501,401.074219 288.197601,401.292236 287.147522,401.295776 
z"/>
<path fill="#1A1B1A" opacity="1.000000" stroke="none" 
	d="
M332.962891,392.430695 
	C333.521667,391.939453 334.323395,391.627686 335.448822,391.296783 
	C334.916962,391.721832 334.061401,392.165985 332.962891,392.430695 
z"/>
<path fill="#1A1B1A" opacity="1.000000" stroke="none" 
	d="
M261.852478,21.704208 
	C261.249237,22.031008 260.499786,22.143349 259.372498,22.199745 
	C259.898529,21.925783 260.802399,21.707767 261.852478,21.704208 
z"/>
<path fill="#1A1B1A" opacity="1.000000" stroke="none" 
	d="
M294.960419,400.479248 
	C295.608551,400.169464 296.478210,400.047974 297.673523,399.985626 
	C297.060089,400.252380 296.121033,400.459961 294.960419,400.479248 
z"/>
<path fill="#1A1B1A" opacity="1.000000" stroke="none" 
	d="
M93.569626,269.962921 
	C94.060921,270.521667 94.372719,271.323303 94.703560,272.448669 
	C94.278450,271.916870 93.834290,271.061340 93.569626,269.962921 
z"/>
<path fill="#1A1B1A" opacity="1.000000" stroke="none" 
	d="
M398.565613,355.676239 
	C399.180084,354.728851 400.197388,353.744019 401.528320,352.593811 
	C400.884125,353.498566 399.926300,354.568665 398.565613,355.676239 
z"/>
<path fill="#1A1B1A" opacity="1.000000" stroke="none" 
	d="
M289.874695,21.886478 
	C289.246307,22.125341 288.488739,22.134148 287.366211,22.028261 
	C287.915985,21.827852 288.830780,21.742138 289.874695,21.886478 
z"/>
<path fill="#1A1B1A" opacity="1.000000" stroke="none" 
	d="
M254.039566,22.520771 
	C253.391434,22.830559 252.521790,22.952059 251.326477,23.014380 
	C251.939896,22.747627 252.878983,22.540054 254.039566,22.520771 
z"/>
<path fill="#1A1B1A" opacity="1.000000" stroke="none" 
	d="
M85.521034,231.960541 
	C85.830910,232.608658 85.952484,233.478287 86.014816,234.673538 
	C85.747963,234.060135 85.540344,233.121094 85.521034,231.960541 
z"/>
<path fill="#1A1B1A" opacity="1.000000" stroke="none" 
	d="
M216.037079,30.569305 
	C215.478317,31.060556 214.676605,31.372322 213.551193,31.703213 
	C214.083038,31.278166 214.938599,30.833992 216.037079,30.569305 
z"/>
<path fill="#1A1B1A" opacity="1.000000" stroke="none" 
	d="
M464.113403,226.874725 
	C463.874542,226.246353 463.865692,225.488800 463.971588,224.366272 
	C464.172028,224.916031 464.257751,225.830780 464.113403,226.874725 
z"/>
<path fill="#1A1B1A" opacity="1.000000" stroke="none" 
	d="
M84.704529,224.147430 
	C85.031441,224.750687 85.143860,225.500153 85.200272,226.627457 
	C84.926193,226.101410 84.708122,225.197525 84.704529,224.147430 
z"/>
<path fill="#1A1B1A" opacity="1.000000" stroke="none" 
	d="
M464.295715,198.852554 
	C463.968872,198.249298 463.856537,197.499847 463.800110,196.372559 
	C464.074097,196.898590 464.292114,197.802475 464.295715,198.852554 
z"/>
<path fill="#1A1B1A" opacity="1.000000" stroke="none" 
	d="
M84.886894,196.125259 
	C85.125832,196.753662 85.134659,197.511215 85.028702,198.633728 
	C84.828209,198.083939 84.742500,197.169174 84.886894,196.125259 
z"/>
<path fill="#1A1B1A" opacity="1.000000" stroke="none" 
	d="
M463.479187,191.039520 
	C463.169373,190.391418 463.047821,189.521774 462.985474,188.326477 
	C463.252258,188.939880 463.459869,189.878937 463.479187,191.039520 
z"/>
<path fill="#1A1B1A" opacity="1.000000" stroke="none" 
	d="
M455.430634,153.037064 
	C454.939331,152.478317 454.627563,151.676620 454.296692,150.551224 
	C454.721771,151.083069 455.165955,151.938599 455.430634,153.037064 
z"/>
<path fill="#1A1B1A" opacity="1.000000" stroke="none" 
	d="
M368.634155,376.776733 
	C369.227325,376.137085 370.201813,375.454224 371.527191,374.697540 
	C370.923859,375.326965 369.969635,376.030212 368.634155,376.776733 
z"/>
<path fill="#1A1B1A" opacity="1.000000" stroke="none" 
	d="
M180.366089,46.223927 
	C179.772934,46.863567 178.798462,47.546288 177.473099,48.302803 
	C178.076401,47.673401 179.030594,46.970203 180.366089,46.223927 
z"/>
<path fill="#1A1B1A" opacity="1.000000" stroke="none" 
	d="
M439.775940,117.366180 
	C439.136292,116.773003 438.453552,115.798500 437.697021,114.473099 
	C438.326416,115.076424 439.029663,116.030647 439.775940,117.366180 
z"/>
<path fill="#1A1B1A" opacity="1.000000" stroke="none" 
	d="
M109.224243,305.633545 
	C109.863991,306.226715 110.546768,307.201263 111.303360,308.526733 
	C110.673874,307.923401 109.970581,306.969147 109.224243,305.633545 
z"/>
<path fill="#06C96E" opacity="1.000000" stroke="none" 
	d="
M86.082489,190.229431 
	C86.192703,190.575958 86.207916,191.098343 86.132164,191.801849 
	C86.023285,191.457077 86.005379,190.931168 86.082489,190.229431 
z"/>
<path fill="#06C96E" opacity="1.000000" stroke="none" 
	d="
M462.918304,232.770767 
	C462.807953,232.424118 462.792603,231.901581 462.868439,231.197937 
	C462.977509,231.542847 462.995422,232.068863 462.918304,232.770767 
z"/>
<path fill="#06C96E" opacity="1.000000" stroke="none" 
	d="
M253.229202,399.918427 
	C253.575851,399.808105 254.098404,399.792786 254.802094,399.868591 
	C254.457169,399.977631 253.931152,399.995514 253.229202,399.918427 
z"/>
<path fill="#06C96E" opacity="1.000000" stroke="none" 
	d="
M295.770508,23.082314 
	C295.424011,23.192350 294.901611,23.207476 294.198059,23.131765 
	C294.542786,23.023085 295.068695,23.005243 295.770508,23.082314 
z"/>
<path fill="#1A1B1A" opacity="1.000000" stroke="none" 
	d="
M242.338440,396.125122 
	C237.185501,395.367493 232.400345,394.599243 227.299164,393.533691 
	C220.150635,390.827087 213.225800,388.647186 206.511322,385.944733 
	C199.630188,383.175171 192.954910,379.894196 185.850174,376.769653 
	C163.458359,363.973907 143.744476,348.419708 128.034241,328.226349 
	C95.573570,286.502625 82.506554,239.330902 88.896141,186.206116 
	C88.980881,185.063293 88.982178,184.534470 88.983475,184.005630 
	C89.283951,182.572433 89.584435,181.139236 89.874130,179.338196 
	C90.926239,174.259247 91.989143,169.548141 93.049591,164.425903 
	C97.847229,148.085510 103.551842,132.531204 112.161667,117.810379 
	C126.139290,94.602394 143.391144,74.777016 165.363785,59.315796 
	C205.648346,30.969263 250.284241,19.844311 299.793976,25.896404 
	C300.936829,25.981020 301.465637,25.982376 301.994476,25.983732 
	C303.427673,26.284258 304.860840,26.584784 306.661865,26.874468 
	C311.740814,27.926426 316.451935,28.989225 321.574158,30.049576 
	C337.913391,34.849987 353.469452,40.550278 368.189636,49.161575 
	C391.397827,63.139194 411.223450,80.391174 426.684509,102.364090 
	C455.030396,142.648605 466.157196,187.283966 460.103149,236.793869 
	C460.018280,237.936768 460.017029,238.465683 460.015808,238.994598 
	C459.715393,240.427673 459.415039,241.860748 459.125244,243.661652 
	C458.072937,248.740555 457.010040,253.451645 455.949768,258.573914 
	C451.150726,274.913635 445.449463,290.469360 436.838318,305.189697 
	C422.951813,328.251404 405.834259,347.983154 384.043732,363.396149 
	C343.678284,391.947662 298.905304,403.177826 249.206268,397.103027 
	C248.063278,397.018188 247.534302,397.016907 247.005325,397.015625 
	C245.572296,396.715271 244.139252,396.414886 242.338440,396.125122 
M142.547760,196.348557 
	C141.782227,197.822144 141.016708,199.295731 140.490677,201.584015 
	C140.454071,202.902908 140.282501,204.234161 140.402161,205.538727 
	C141.362946,216.013229 142.378693,226.482712 143.016388,237.708023 
	C146.744858,256.048981 153.911789,272.938904 164.830597,288.132446 
	C181.419327,311.215790 202.872284,327.907532 230.640930,337.311157 
	C238.824768,339.305664 246.944626,341.632751 255.206497,343.221436 
	C269.844452,346.036133 284.484222,345.421326 299.844849,342.080414 
	C348.293152,331.407074 381.620087,303.084412 399.879883,256.090698 
	C412.666260,219.214828 410.189087,183.344360 392.441925,148.633087 
	C383.748566,131.629990 371.586884,117.345177 356.537994,105.606644 
	C340.954163,93.450890 323.415649,85.450035 304.222290,80.617531 
	C286.211182,76.082703 268.080383,76.418068 250.196106,79.507553 
	C215.531372,85.495872 187.705017,103.295021 166.583588,131.447693 
	C165.665359,132.671616 165.502289,134.462097 165.000000,136.000000 
	C165.000000,136.000000 164.987808,135.988251 164.450958,135.406052 
	C163.213318,136.907394 161.786865,138.291183 160.767532,139.928452 
	C151.577698,154.689270 145.352875,170.600967 142.016220,188.441315 
	C142.440247,191.050293 142.864288,193.659286 143.244492,196.221985 
	C143.244492,196.221985 143.306778,196.209045 142.547760,196.348557 
z"/>
<path fill="#06C96E" opacity="1.000000" stroke="none" 
	d="
M88.887421,184.185730 
	C88.982178,184.534470 88.980881,185.063293 88.883690,185.768646 
	C88.788986,185.418701 88.790184,184.892273 88.887421,184.185730 
z"/>
<path fill="#06C96E" opacity="1.000000" stroke="none" 
	d="
M460.112000,238.814514 
	C460.017029,238.465683 460.018280,237.936768 460.115417,237.231323 
	C460.210297,237.581345 460.209259,238.107880 460.112000,238.814514 
z"/>
<path fill="#06C96E" opacity="1.000000" stroke="none" 
	d="
M247.185440,397.111847 
	C247.534302,397.016907 248.063278,397.018188 248.768829,397.115326 
	C248.418777,397.210175 247.892166,397.209106 247.185440,397.111847 
z"/>
<path fill="#06C96E" opacity="1.000000" stroke="none" 
	d="
M301.814331,25.887812 
	C301.465637,25.982376 300.936829,25.981020 300.231445,25.883877 
	C300.581329,25.789354 301.107758,25.790623 301.814331,25.887812 
z"/>
<path fill="#1A1B1B" opacity="1.000000" stroke="none" 
	d="
M143.288315,196.268265 
	C142.864288,193.659286 142.440247,191.050293 142.434982,187.891388 
	C143.932816,185.352051 145.494690,183.480408 146.013351,181.354279 
	C149.655975,166.422318 155.531967,152.477432 163.764130,139.502914 
	C164.411194,138.483109 164.590897,137.166763 164.987808,135.988251 
	C164.987808,135.988251 165.000000,136.000000 165.338745,136.043182 
	C166.632492,134.948257 167.628281,133.841721 168.536530,132.667480 
	C195.144089,98.267670 230.111298,80.260780 273.661041,79.657249 
	C332.579651,78.840736 386.036346,119.851135 400.973999,176.812057 
	C407.896759,203.210388 406.481781,229.223618 397.846619,255.314026 
	C389.327057,278.110046 376.071442,297.138489 357.580719,312.454468 
	C340.429169,326.661194 320.681641,335.433258 298.647766,340.199432 
	C293.514496,340.795410 288.788879,341.839996 284.048157,341.913757 
	C274.722412,342.058960 265.304871,342.371887 256.082428,341.283752 
	C247.798691,340.306305 239.725510,337.544525 231.289673,335.343262 
	C185.924866,318.013184 157.297653,286.266205 145.752518,239.296555 
	C145.538010,238.423859 144.772034,237.686722 144.083160,236.541138 
	C143.935760,233.755493 144.036850,231.313721 143.989609,228.874832 
	C143.779007,218.005539 143.526001,207.137039 143.288315,196.268265 
M312.577332,281.114838 
	C343.024872,261.990692 357.145630,234.628098 352.986145,198.754669 
	C348.154633,157.085968 309.947418,125.902100 267.381653,128.171783 
	C225.396179,130.410522 190.985352,165.705215 190.102386,207.436020 
	C188.748581,271.420227 255.255386,311.833618 312.577332,281.114838 
z"/>
<path fill="#0654CA" opacity="1.000000" stroke="none" 
	d="
M398.034302,255.008118 
	C406.481781,229.223618 407.896759,203.210388 400.973999,176.812057 
	C386.036346,119.851135 332.579651,78.840736 273.661041,79.657249 
	C230.111298,80.260780 195.144089,98.267670 168.536530,132.667480 
	C167.628281,133.841721 166.632492,134.948257 165.332474,136.037506 
	C165.502289,134.462097 165.665359,132.671616 166.583588,131.447693 
	C187.705017,103.295021 215.531372,85.495872 250.196106,79.507553 
	C268.080383,76.418068 286.211182,76.082703 304.222290,80.617531 
	C323.415649,85.450035 340.954163,93.450890 356.537994,105.606644 
	C371.586884,117.345177 383.748566,131.629990 392.441925,148.633087 
	C410.189087,183.344360 412.666260,219.214828 399.445068,256.113495 
	C398.684937,255.760223 398.359619,255.384171 398.034302,255.008118 
z"/>
<path fill="#0654CA" opacity="1.000000" stroke="none" 
	d="
M144.263367,236.886337 
	C144.772034,237.686722 145.538010,238.423859 145.752518,239.296555 
	C157.297653,286.266205 185.924866,318.013184 231.033051,335.567322 
	C230.706924,336.319855 230.367676,336.621765 230.028427,336.923676 
	C202.872284,327.907532 181.419327,311.215790 164.830597,288.132446 
	C153.911789,272.938904 146.744858,256.048981 143.419098,237.322510 
	C143.821793,236.936981 144.263367,236.886337 144.263367,236.886337 
z"/>
<path fill="#0556D0" opacity="1.000000" stroke="none" 
	d="
M397.846619,255.314011 
	C398.359619,255.384171 398.684937,255.760223 399.246948,256.424744 
	C381.620087,303.084412 348.293152,331.407074 299.431396,341.759369 
	C299.028168,341.028595 299.038391,340.618896 299.048615,340.209167 
	C320.681641,335.433258 340.429169,326.661194 357.580719,312.454468 
	C376.071442,297.138489 389.327057,278.110046 397.846619,255.314011 
z"/>
<path fill="#0654CA" opacity="1.000000" stroke="none" 
	d="
M164.719391,135.697144 
	C164.590897,137.166763 164.411194,138.483109 163.764130,139.502914 
	C155.531967,152.477432 149.655975,166.422318 146.013351,181.354279 
	C145.494690,183.480408 143.932816,185.352051 142.645218,187.557098 
	C145.352875,170.600967 151.577698,154.689270 160.767532,139.928452 
	C161.786865,138.291183 163.213318,136.907394 164.719391,135.697144 
z"/>
<path fill="#045ADA" opacity="1.000000" stroke="none" 
	d="
M298.647766,340.199432 
	C299.038391,340.618896 299.028168,341.028595 299.011261,341.745667 
	C284.484222,345.421326 269.844452,346.036133 255.206497,343.221436 
	C246.944626,341.632751 238.824768,339.305664 230.334686,337.117432 
	C230.367676,336.621765 230.706924,336.319855 231.302795,335.793884 
	C239.725510,337.544525 247.798691,340.306305 256.082428,341.283752 
	C265.304871,342.371887 274.722412,342.058960 284.048157,341.913757 
	C288.788879,341.839996 293.514496,340.795410 298.647766,340.199432 
z"/>
<path fill="#0751C0" opacity="1.000000" stroke="none" 
	d="
M144.083160,236.541138 
	C144.263367,236.886337 143.821793,236.936981 143.599701,236.945343 
	C142.378693,226.482712 141.362946,216.013229 140.402161,205.538727 
	C140.282501,204.234161 140.454071,202.902908 140.650818,200.954895 
	C141.642899,198.953552 142.474838,197.581299 143.306778,196.209045 
	C143.306778,196.209045 143.244492,196.221985 143.266403,196.245117 
	C143.526001,207.137039 143.779007,218.005539 143.989609,228.874832 
	C144.036850,231.313721 143.935760,233.755493 144.083160,236.541138 
z"/>
<path fill="#1A1B1B" opacity="1.000000" stroke="none" 
	d="
M142.927277,196.278809 
	C142.474838,197.581299 141.642899,198.953552 140.531067,200.547546 
	C141.016708,199.295731 141.782227,197.822144 142.927277,196.278809 
z"/>
<path fill="#0196D4" opacity="1.000000" stroke="none" 
	d="
M312.253784,281.290222 
	C255.255386,311.833618 188.748581,271.420227 190.102386,207.436020 
	C190.985352,165.705215 225.396179,130.410522 267.381653,128.171783 
	C309.947418,125.902100 348.154633,157.085968 352.986145,198.754669 
	C357.145630,234.628098 343.024872,261.990692 312.253784,281.290222 
M199.478195,221.793564 
	C205.094589,257.255768 238.302963,284.738159 273.508362,283.212524 
	C299.067230,282.104919 318.646118,271.232758 332.896271,250.777969 
	C352.829773,222.165283 348.093109,181.605438 323.152649,157.426773 
	C292.020660,127.245789 240.539886,130.422852 214.053360,164.893341 
	C201.265518,181.535889 197.097458,200.361389 199.478195,221.793564 
z"/>
<path fill="#00A3CF" opacity="1.000000" stroke="none" 
	d="
M199.399231,221.351532 
	C197.097458,200.361389 201.265518,181.535889 214.053360,164.893341 
	C240.539886,130.422852 292.020660,127.245789 323.152649,157.426773 
	C348.093109,181.605438 352.829773,222.165283 332.896271,250.777969 
	C318.646118,271.232758 299.067230,282.104919 273.508362,283.212524 
	C238.302963,284.738159 205.094589,257.255768 199.399231,221.351532 
M214.149551,178.724091 
	C208.630844,188.926254 205.856461,200.008911 206.298615,211.417694 
	C207.024826,230.155533 214.031891,246.403519 228.467484,258.957092 
	C242.163559,270.867554 258.093658,276.954437 276.223846,275.667694 
	C294.089386,274.399750 309.238007,266.783569 321.147644,253.290161 
	C332.541077,240.381622 338.505157,225.132568 337.758545,207.959579 
	C336.933289,188.978363 329.271362,172.729950 314.673462,160.294479 
	C301.042389,148.682556 285.108063,142.788422 267.141998,144.411407 
	C243.951035,146.506409 226.624588,158.377014 214.149551,178.724091 
z"/>
<path fill="#00ADC8" opacity="1.000000" stroke="none" 
	d="
M214.320862,178.398651 
	C226.624588,158.377014 243.951035,146.506409 267.141998,144.411407 
	C285.108063,142.788422 301.042389,148.682556 314.673462,160.294479 
	C329.271362,172.729950 336.933289,188.978363 337.758545,207.959579 
	C338.505157,225.132568 332.541077,240.381622 321.147644,253.290161 
	C309.238007,266.783569 294.089386,274.399750 276.223846,275.667694 
	C258.093658,276.954437 242.163559,270.867554 228.467484,258.957092 
	C214.031891,246.403519 207.024826,230.155533 206.298615,211.417694 
	C205.856461,200.008911 208.630844,188.926254 214.320862,178.398651 
M323.514893,182.038208 
	C319.677368,177.045837 316.461731,171.378693 311.898651,167.173645 
	C287.327728,144.530594 251.520279,146.259766 229.865662,169.660934 
	C213.162277,187.711578 208.468857,208.366196 217.459061,231.513733 
	C225.778122,252.933243 248.061935,268.661469 270.314911,268.958862 
	C314.010010,269.542816 345.597931,222.985214 323.514893,182.038208 
z"/>
<path fill="#00B5C1" opacity="1.000000" stroke="none" 
	d="
M323.681122,182.370667 
	C345.597931,222.985214 314.010010,269.542816 270.314911,268.958862 
	C248.061935,268.661469 225.778122,252.933243 217.459061,231.513733 
	C208.468857,208.366196 213.162277,187.711578 229.865662,169.660934 
	C251.520279,146.259766 287.327728,144.530594 311.898651,167.173645 
	C316.461731,171.378693 319.677368,177.045837 323.681122,182.370667 
M264.692169,262.916168 
	C269.645020,262.906586 274.678375,263.472748 279.537628,262.793549 
	C309.992523,258.536560 327.024323,231.933899 325.635010,208.005783 
	C323.369324,168.984497 284.189972,145.674347 249.395416,161.616455 
	C228.312119,171.276398 216.896347,193.858429 218.345230,212.790741 
	C220.360016,239.117554 237.688522,257.466339 264.692169,262.916168 
z"/>
<path fill="#00BBBD" opacity="1.000000" stroke="none" 
	d="
M264.266357,262.861847 
	C237.688522,257.466339 220.360016,239.117554 218.345230,212.790741 
	C216.896347,193.858429 228.312119,171.276398 249.395416,161.616455 
	C284.189972,145.674347 323.369324,168.984497 325.635010,208.005783 
	C327.024323,231.933899 309.992523,258.536560 279.537628,262.793549 
	C274.678375,263.472748 269.645020,262.906586 264.266357,262.861847 
M247.350784,167.224258 
	C242.566925,171.482590 237.783051,175.740921 232.494858,180.282547 
	C231.996780,180.855194 231.498688,181.427841 230.999878,182.499878 
	C230.999878,182.499878 230.999115,182.999237 230.428024,183.300980 
	C229.618881,184.534180 228.809738,185.767395 227.842102,187.669052 
	C227.560730,188.778885 227.279358,189.888733 226.395996,191.337296 
	C222.834442,195.287491 221.662445,199.831924 222.998215,205.799774 
	C222.998199,206.866119 222.998184,207.932465 222.511841,209.327408 
	C222.673950,210.552002 222.836060,211.776581 222.997986,213.667450 
	C222.998108,214.111633 222.998230,214.555817 222.692856,215.667557 
	C222.104401,220.765533 222.717972,225.475403 227.156448,229.669968 
	C227.437836,230.779770 227.719223,231.889587 228.182053,233.635803 
	C229.121078,234.757462 230.060104,235.879120 230.999893,237.500137 
	C230.999893,237.500137 231.000610,237.999512 231.283264,238.504196 
	C231.855301,239.002975 232.427353,239.501755 233.196045,240.525818 
	C233.464233,241.017014 233.732422,241.508194 234.221710,242.639236 
	C236.148010,244.425934 238.074310,246.212646 240.499847,248.000168 
	C240.499847,248.000168 240.999100,248.001038 241.229340,248.644928 
	C245.997681,251.654526 250.519775,255.221237 255.621582,257.476440 
	C258.982422,258.962067 263.178131,258.558990 267.908203,259.001587 
	C270.938812,259.001556 273.969391,259.001556 277.668335,259.307312 
	C284.614014,259.632263 290.968597,258.239105 296.499908,253.000000 
	C296.499908,253.000000 296.999512,252.999344 297.662994,252.816650 
	C299.109009,251.544693 300.555023,250.272736 302.526276,248.804092 
	C303.017426,248.535858 303.508606,248.267624 304.639526,247.778305 
	C306.426025,245.852005 308.212524,243.925705 310.302246,241.527603 
	C310.534943,241.018570 310.767639,240.509552 311.504761,239.717300 
	C312.003021,239.144714 312.501312,238.572113 313.000336,237.500153 
	C313.000336,237.500153 313.001221,237.000763 313.572174,236.698959 
	C314.381165,235.465775 315.190186,234.232574 316.157776,232.330948 
	C316.439209,231.221115 316.720673,230.111282 317.604126,228.662720 
	C321.165314,224.712418 322.337708,220.168091 321.001617,214.083847 
	C321.001617,210.722565 321.001587,207.361282 321.288971,203.352844 
	C321.425537,195.387817 318.528137,188.658218 313.000000,182.499969 
	C313.000000,182.499969 312.998932,182.000610 312.769958,181.406433 
	C311.847046,180.604004 310.924133,179.801590 310.000000,178.499893 
	C310.000000,178.499893 309.998779,178.000610 309.777954,177.360733 
	C307.851929,175.574020 305.925873,173.787323 303.527954,171.697342 
	C303.018860,171.464645 302.509796,171.231949 301.717407,170.494965 
	C301.144684,169.996964 300.571960,169.498962 299.499634,169.000153 
	C299.499634,169.000153 299.000000,168.999512 298.716797,168.495209 
	C298.144379,167.997040 297.571930,167.498871 296.499939,167.000000 
	C296.499939,167.000000 296.000336,166.999390 295.674500,166.400711 
	C290.177826,162.082855 284.139313,159.638031 276.250305,160.998260 
	C275.500610,160.998230 274.750916,160.998199 273.672516,160.511902 
	C272.447937,160.673996 271.223358,160.836090 269.249084,160.998077 
	C268.499390,160.998199 267.749695,160.998337 266.332062,160.692856 
	C259.324310,160.187958 253.168213,162.158691 247.350784,167.224258 
z"/>
<path fill="#00C0B9" opacity="1.000000" stroke="none" 
	d="
M232.999176,179.999237 
	C237.783051,175.740921 242.566925,171.482590 248.030441,167.014435 
	C254.806732,164.869217 260.903381,162.933853 267.000000,160.998474 
	C267.749695,160.998337 268.499390,160.998199 270.024200,160.998596 
	C271.866608,160.998795 272.933929,160.998474 274.001221,160.998169 
	C274.750916,160.998199 275.500610,160.998230 276.960754,161.162888 
	C283.780914,163.218140 289.890625,165.108765 296.000336,166.999390 
	C296.000336,166.999390 296.499939,167.000000 296.891296,167.252487 
	C297.855133,168.003159 298.427551,168.501343 299.000000,168.999512 
	C299.000000,168.999512 299.499634,169.000153 299.891113,169.252686 
	C300.855286,170.003235 301.427979,170.501236 302.000702,170.999237 
	C302.509796,171.231949 303.018860,171.464645 303.874573,172.168762 
	C306.147064,174.426987 308.072937,176.213791 309.998779,178.000610 
	C309.998779,178.000610 310.000000,178.499893 310.115051,179.046661 
	C311.153015,180.395813 312.075989,181.198212 312.998932,182.000610 
	C312.998932,182.000610 313.000000,182.499969 313.095520,183.097351 
	C315.794556,190.463165 318.398041,197.231583 321.001556,204.000000 
	C321.001587,207.361282 321.001617,210.722565 320.840759,214.883331 
	C319.454010,220.122360 318.228058,224.561905 317.002136,229.001465 
	C316.720673,230.111282 316.439209,231.221115 315.792969,232.816071 
	C314.619202,234.534378 313.810211,235.767578 313.001221,237.000763 
	C313.001221,237.000763 313.000336,237.500153 312.747742,237.891449 
	C311.996857,238.855331 311.498596,239.427933 311.000336,240.000519 
	C310.767639,240.509552 310.534943,241.018570 309.830872,241.874298 
	C307.572937,244.147125 305.786346,246.073257 303.999756,247.999390 
	C303.508606,248.267624 303.017426,248.535858 301.944397,249.007919 
	C299.908173,250.474274 298.453857,251.736801 296.999512,252.999344 
	C296.999512,252.999344 296.499908,253.000000 295.894836,253.097717 
	C289.193146,255.130798 283.096588,257.066162 277.000000,259.001556 
	C273.969391,259.001556 270.938812,259.001556 267.118500,258.837067 
	C257.114197,256.946289 248.800751,253.081055 240.999100,248.001038 
	C240.999100,248.001038 240.499847,248.000168 240.139435,247.679993 
	C237.852875,245.573013 235.926743,243.786209 234.000610,241.999390 
	C233.732422,241.508194 233.464233,241.017014 232.956406,240.010834 
	C232.144714,238.997055 231.572662,238.498276 231.000610,237.999512 
	C231.000610,237.999512 230.999893,237.500137 230.908813,236.932220 
	C229.878693,235.242676 228.939651,234.121033 228.000610,232.999390 
	C227.719223,231.889587 227.437836,230.779770 226.986450,228.969086 
	C225.543762,223.845474 224.271057,219.422729 222.998352,215.000000 
	C222.998230,214.555817 222.998108,214.111633 222.998550,212.934082 
	C222.998795,211.133408 222.998489,210.066101 222.998169,208.998810 
	C222.998184,207.932465 222.998199,206.866119 223.159119,205.058487 
	C224.545990,199.877655 225.771988,195.438110 226.997986,190.998566 
	C227.279358,189.888733 227.560730,188.778885 228.206894,187.183960 
	C229.380829,185.465637 230.189972,184.232437 230.999115,182.999237 
	C230.999115,182.999237 230.999878,182.499878 231.252380,182.108536 
	C232.002991,181.144547 232.501083,180.571884 232.999176,179.999237 
M233.986267,183.520721 
	C226.816772,194.186646 223.730743,205.665909 226.192551,218.569931 
	C230.760040,242.511337 253.005829,258.850250 278.038208,255.860199 
	C300.754913,253.146774 318.874603,234.211136 318.695221,208.437378 
	C318.561432,189.214920 304.275116,171.413803 285.753174,165.773788 
	C266.233795,159.830048 246.537537,166.406647 233.986267,183.520721 
z"/>
<path fill="#00BDBB" opacity="1.000000" stroke="none" 
	d="
M241.114227,248.322983 
	C248.800751,253.081055 257.114197,256.946289 266.664398,258.837097 
	C263.178131,258.558990 258.982422,258.962067 255.621582,257.476440 
	C250.519775,255.221237 245.997681,251.654526 241.114227,248.322983 
z"/>
<path fill="#00BDBB" opacity="1.000000" stroke="none" 
	d="
M321.145264,203.676422 
	C318.398041,197.231583 315.794556,190.463165 313.096130,183.347015 
	C318.528137,188.658218 321.425537,195.387817 321.145264,203.676422 
z"/>
<path fill="#00BDBB" opacity="1.000000" stroke="none" 
	d="
M277.334167,259.154419 
	C283.096588,257.066162 289.193146,255.130798 295.645020,253.098022 
	C290.968597,258.239105 284.614014,259.632263 277.334167,259.154419 
z"/>
<path fill="#00BDBB" opacity="1.000000" stroke="none" 
	d="
M295.837402,166.700043 
	C289.890625,165.108765 283.780914,163.218140 277.335602,161.162994 
	C284.139313,159.638031 290.177826,162.082855 295.837402,166.700043 
z"/>
<path fill="#00BDBB" opacity="1.000000" stroke="none" 
	d="
M266.666016,160.845673 
	C260.903381,162.933853 254.806732,164.869217 248.354736,166.901993 
	C253.168213,162.158691 259.324310,160.187958 266.666016,160.845673 
z"/>
<path fill="#00BDBB" opacity="1.000000" stroke="none" 
	d="
M222.845612,215.333771 
	C224.271057,219.422729 225.543762,223.845474 226.907211,228.634857 
	C222.717972,225.475403 222.104401,220.765533 222.845612,215.333771 
z"/>
<path fill="#00BDBB" opacity="1.000000" stroke="none" 
	d="
M226.696991,191.167938 
	C225.771988,195.438110 224.545990,199.877655 223.159164,204.658600 
	C221.662445,199.831924 222.834442,195.287491 226.696991,191.167938 
z"/>
<path fill="#00BDBB" opacity="1.000000" stroke="none" 
	d="
M317.303131,228.832092 
	C318.228058,224.561905 319.454010,220.122360 320.840759,215.341400 
	C322.337708,220.168091 321.165314,224.712418 317.303131,228.832092 
z"/>
<path fill="#00BDBB" opacity="1.000000" stroke="none" 
	d="
M309.888367,177.680664 
	C308.072937,176.213791 306.147064,174.426987 304.110535,172.320389 
	C305.925873,173.787323 307.851929,175.574020 309.888367,177.680664 
z"/>
<path fill="#00BDBB" opacity="1.000000" stroke="none" 
	d="
M234.111160,242.319305 
	C235.926743,243.786209 237.852875,245.573013 239.889816,247.679581 
	C238.074310,246.212646 236.148010,244.425934 234.111160,242.319305 
z"/>
<path fill="#00BDBB" opacity="1.000000" stroke="none" 
	d="
M304.319641,247.888855 
	C305.786346,246.073257 307.572937,244.147125 309.679260,242.110199 
	C308.212524,243.925705 306.426025,245.852005 304.319641,247.888855 
z"/>
<path fill="#00BDBB" opacity="1.000000" stroke="none" 
	d="
M297.331238,252.907990 
	C298.453857,251.736801 299.908173,250.474274 301.681763,249.106262 
	C300.555023,250.272736 299.109009,251.544693 297.331238,252.907990 
z"/>
<path fill="#00BDBB" opacity="1.000000" stroke="none" 
	d="
M228.091339,233.317596 
	C228.939651,234.121033 229.878693,235.242676 230.908432,236.682541 
	C230.060104,235.879120 229.121078,234.757462 228.091339,233.317596 
z"/>
<path fill="#00BDBB" opacity="1.000000" stroke="none" 
	d="
M313.286713,236.849869 
	C313.810211,235.767578 314.619202,234.534378 315.713684,233.150284 
	C315.190186,234.232574 314.381165,235.465775 313.286713,236.849869 
z"/>
<path fill="#00BDBB" opacity="1.000000" stroke="none" 
	d="
M222.755005,209.163116 
	C222.998489,210.066101 222.998795,211.133408 222.998642,212.600937 
	C222.836060,211.776581 222.673950,210.552002 222.755005,209.163116 
z"/>
<path fill="#00BDBB" opacity="1.000000" stroke="none" 
	d="
M230.713562,183.150116 
	C230.189972,184.232437 229.380829,185.465637 228.286133,186.849731 
	C228.809738,185.767395 229.618881,184.534180 230.713562,183.150116 
z"/>
<path fill="#00BDBB" opacity="1.000000" stroke="none" 
	d="
M273.836853,160.755035 
	C272.933929,160.998474 271.866608,160.998795 270.399048,160.998642 
	C271.223358,160.836090 272.447937,160.673996 273.836853,160.755035 
z"/>
<path fill="#00BDBB" opacity="1.000000" stroke="none" 
	d="
M312.884460,181.703522 
	C312.075989,181.198212 311.153015,180.395813 310.115662,179.296295 
	C310.924133,179.801590 311.847046,180.604004 312.884460,181.703522 
z"/>
<path fill="#00BDBB" opacity="1.000000" stroke="none" 
	d="
M311.252563,239.858917 
	C311.498596,239.427933 311.996857,238.855331 312.747375,238.141129 
	C312.501312,238.572113 312.003021,239.144714 311.252563,239.858917 
z"/>
<path fill="#00BDBB" opacity="1.000000" stroke="none" 
	d="
M232.747009,180.140900 
	C232.501083,180.571884 232.002991,181.144547 231.252747,181.858841 
	C231.498688,181.427841 231.996780,180.855194 232.747009,180.140900 
z"/>
<path fill="#00BDBB" opacity="1.000000" stroke="none" 
	d="
M301.859070,170.747101 
	C301.427979,170.501236 300.855286,170.003235 300.140900,169.253082 
	C300.571960,169.498962 301.144684,169.996964 301.859070,170.747101 
z"/>
<path fill="#00BDBB" opacity="1.000000" stroke="none" 
	d="
M298.858398,168.747360 
	C298.427551,168.501343 297.855133,168.003159 297.141113,167.252838 
	C297.571930,167.498871 298.144379,167.997040 298.858398,168.747360 
z"/>
<path fill="#00BDBB" opacity="1.000000" stroke="none" 
	d="
M231.141937,238.251862 
	C231.572662,238.498276 232.144714,238.997055 232.858093,239.748184 
	C232.427353,239.501755 231.855301,239.002975 231.141937,238.251862 
z"/>
<path fill="#00C3B7" opacity="1.000000" stroke="none" 
	d="
M234.187302,183.222656 
	C246.537537,166.406647 266.233795,159.830048 285.753174,165.773788 
	C304.275116,171.413803 318.561432,189.214920 318.695221,208.437378 
	C318.874603,234.211136 300.754913,253.146774 278.038208,255.860199 
	C253.005829,258.850250 230.760040,242.511337 226.192551,218.569931 
	C223.730743,205.665909 226.816772,194.186646 234.187302,183.222656 
M307.205627,235.665848 
	C320.433075,216.008789 318.534363,194.764709 302.105957,178.607086 
	C288.653931,165.376770 266.725677,162.285187 251.382034,171.455704 
	C232.357925,182.825974 223.721176,202.841873 230.113281,222.481598 
	C235.471085,238.943497 246.882004,249.530823 264.048737,252.822342 
	C281.540588,256.176178 295.650940,249.786194 307.205627,235.665848 
z"/>
<path fill="#00C7B3" opacity="1.000000" stroke="none" 
	d="
M307.001495,235.959198 
	C295.650940,249.786194 281.540588,256.176178 264.048737,252.822342 
	C246.882004,249.530823 235.471085,238.943497 230.113281,222.481598 
	C223.721176,202.841873 232.357925,182.825974 251.382034,171.455704 
	C266.725677,162.285187 288.653931,165.376770 302.105957,178.607086 
	C318.534363,194.764709 320.433075,216.008789 307.001495,235.959198 
M232.924133,216.471130 
	C237.055496,239.828461 258.949097,254.216705 281.939758,248.389099 
	C300.939301,243.573120 313.087219,226.443726 311.688141,207.384933 
	C309.972229,184.009872 289.825653,167.455170 265.892975,170.897354 
	C244.651337,173.952484 229.178131,194.553940 232.924133,216.471130 
z"/>
<path fill="#00CEAE" opacity="1.000000" stroke="none" 
	d="
M232.859589,216.046509 
	C229.178131,194.553940 244.651337,173.952484 265.892975,170.897354 
	C289.825653,167.455170 309.972229,184.009872 311.688141,207.384933 
	C313.087219,226.443726 300.939301,243.573120 281.939758,248.389099 
	C258.949097,254.216705 237.055496,239.828461 232.859589,216.046509 
M301.413483,191.171829 
	C294.376953,179.958176 283.653351,175.308762 271.012054,175.160278 
	C257.151337,174.997482 244.606796,184.220337 239.467606,197.339493 
	C234.364624,210.366241 237.826523,225.835709 248.004517,235.486511 
	C257.712616,244.691757 273.953369,247.410080 286.181854,241.876465 
	C305.548401,233.112762 312.289032,211.496170 301.413483,191.171829 
z"/>
<path fill="#00D4AA" opacity="1.000000" stroke="none" 
	d="
M301.604919,191.486969 
	C312.289032,211.496170 305.548401,233.112762 286.181854,241.876465 
	C273.953369,247.410080 257.712616,244.691757 248.004517,235.486511 
	C237.826523,225.835709 234.364624,210.366241 239.467606,197.339493 
	C244.606796,184.220337 257.151337,174.997482 271.012054,175.160278 
	C283.653351,175.308762 294.376953,179.958176 301.604919,191.486969 
M255.802216,236.800613 
	C268.151978,243.352112 282.150146,242.273178 292.331604,233.985046 
	C301.185822,226.777374 305.333252,213.082397 302.076630,201.806335 
	C298.003876,187.704361 287.024872,179.135239 272.862091,179.004395 
	C257.519165,178.862625 246.609879,186.705734 242.149658,201.084717 
	C238.075745,214.218338 243.310745,228.419769 255.802216,236.800613 
z"/>
<path fill="#00D7A7" opacity="1.000000" stroke="none" 
	d="
M255.488007,236.608521 
	C243.310745,228.419769 238.075745,214.218338 242.149658,201.084717 
	C246.609879,186.705734 257.519165,178.862625 272.862091,179.004395 
	C287.024872,179.135239 298.003876,187.704361 302.076630,201.806335 
	C305.333252,213.082397 301.185822,226.777374 292.331604,233.985046 
	C282.150146,242.273178 268.151978,243.352112 255.488007,236.608521 
M296.813110,196.878586 
	C295.989166,195.626556 295.242065,194.315262 294.329315,193.131714 
	C285.849213,182.136078 270.109314,178.796249 258.383484,185.473999 
	C246.142975,192.444855 240.791107,207.386398 246.035339,219.947998 
	C251.900635,233.997223 264.867218,240.635635 279.220093,236.937393 
	C296.329163,232.529007 304.071777,215.528549 296.813110,196.878586 
z"/>
<path fill="#00DDA3" opacity="1.000000" stroke="none" 
	d="
M296.986328,197.213196 
	C304.071777,215.528549 296.329163,232.529007 279.220093,236.937393 
	C264.867218,240.635635 251.900635,233.997223 246.035339,219.947998 
	C240.791107,207.386398 246.142975,192.444855 258.383484,185.473999 
	C270.109314,178.796249 285.849213,182.136078 294.329315,193.131714 
	C295.242065,194.315262 295.989166,195.626556 296.986328,197.213196 
M249.190140,213.020950 
	C250.684830,216.510345 251.747437,220.275146 253.760925,223.433838 
	C258.472900,230.825882 268.328888,234.332596 276.999176,232.230331 
	C286.838409,229.844635 293.445068,222.450882 294.768738,212.343735 
	C295.867828,203.951202 290.757721,194.102371 283.246033,190.135773 
	C266.377411,181.228149 249.065109,192.402969 249.190140,213.020950 
z"/>
<path fill="#00E59C" opacity="1.000000" stroke="none" 
	d="
M249.147003,212.597473 
	C249.065109,192.402969 266.377411,181.228149 283.246033,190.135773 
	C290.757721,194.102371 295.867828,203.951202 294.768738,212.343735 
	C293.445068,222.450882 286.838409,229.844635 276.999176,232.230331 
	C268.328888,234.332596 258.472900,230.825882 253.760925,223.433838 
	C251.747437,220.275146 250.684830,216.510345 249.147003,212.597473 
M256.088593,214.261002 
	C259.276184,222.982605 266.477081,227.797104 274.240723,226.397476 
	C283.299927,224.764282 289.888580,216.107788 288.403931,207.789169 
	C286.733643,198.430359 278.465820,192.090149 269.872345,193.578140 
	C259.861969,195.311478 254.153366,203.446899 256.088593,214.261002 
z"/>
<path fill="#00ED96" opacity="1.000000" stroke="none" 
	d="
M255.990356,213.881348 
	C254.153366,203.446899 259.861969,195.311478 269.872345,193.578140 
	C278.465820,192.090149 286.733643,198.430359 288.403931,207.789169 
	C289.888580,216.107788 283.299927,224.764282 274.240723,226.397476 
	C266.477081,227.797104 259.276184,222.982605 255.990356,213.881348 
M262.334229,209.619202 
	C263.286316,215.694504 266.436646,219.312622 271.478058,219.665253 
	C275.641815,219.956467 278.899719,218.286667 280.649750,214.290237 
	C283.103577,208.686539 280.730286,202.721985 275.307922,200.794632 
	C269.652313,198.784378 264.645599,201.919479 262.334229,209.619202 
z"/>
<path fill="#00F68F" opacity="1.000000" stroke="none" 
	d="
M262.376984,209.242050 
	C264.645599,201.919479 269.652313,198.784378 275.307922,200.794632 
	C280.730286,202.721985 283.103577,208.686539 280.649750,214.290237 
	C278.899719,218.286667 275.641815,219.956467 271.478058,219.665253 
	C266.436646,219.312622 263.286316,215.694504 262.376984,209.242050 
z"/>
</svg>